<?xml version="1.0" encoding="UTF-8"?>
<svg viewBox="0 0 380 260" xmlns="http://www.w3.org/2000/svg">
  <rect width="380" height="260" rx="8" fill="#141417" stroke="#222228" stroke-width="1"/>
  <g transform="translate(40,32)">
    <rect width="300" height="200" fill="#1a2332" rx="2"/>
    <!-- Step 1: Simple 3×2 grid (f0-f3) -->
    <g><animate attributeName="opacity" values="0.9;0.9;0.9;0.9;0;0;0;0;0;0;0;0;0;0;0;0" dur="16s" repeatCount="indefinite"/>
      <line x1="0" y1="0" x2="300" y2="0" stroke="#00caff" stroke-width="0.7"/>
      <line x1="0" y1="100" x2="300" y2="100" stroke="#00caff" stroke-width="0.7"/>
      <line x1="0" y1="200" x2="300" y2="200" stroke="#00caff" stroke-width="0.7"/>
      <line x1="0" y1="0" x2="0" y2="200" stroke="#00caff" stroke-width="0.7"/>
      <line x1="100" y1="0" x2="100" y2="200" stroke="#00caff" stroke-width="0.7"/>
      <line x1="200" y1="0" x2="200" y2="200" stroke="#00caff" stroke-width="0.7"/>
      <line x1="300" y1="0" x2="300" y2="200" stroke="#00caff" stroke-width="0.7"/>
      <!-- Subtle cell tint -->
      <rect x="1" y="1" width="98" height="98" fill="#00caff" opacity="0.04"/>
      <rect x="101" y="1" width="98" height="98" fill="#00caff" opacity="0.07"/>
      <rect x="201" y="1" width="98" height="98" fill="#00caff" opacity="0.04"/>
      <rect x="1" y="101" width="98" height="98" fill="#00caff" opacity="0.07"/>
      <rect x="101" y="101" width="98" height="98" fill="#00caff" opacity="0.04"/>
      <rect x="201" y="101" width="98" height="98" fill="#00caff" opacity="0.07"/>
    </g>
    <!-- Step 2: 3×2 with margin 20, gutter 10 (f4-f7) -->
    <g><animate attributeName="opacity" values="0;0;0;0;0.9;0.9;0.9;0.9;0;0;0;0;0;0;0;0" dur="16s" repeatCount="indefinite"/>
      <!-- Border -->
      <line x1="0" y1="0" x2="300" y2="0" stroke="#00caff" stroke-width="0.5"/>
      <line x1="0" y1="200" x2="300" y2="200" stroke="#00caff" stroke-width="0.5"/>
      <line x1="0" y1="0" x2="0" y2="200" stroke="#00caff" stroke-width="0.5"/>
      <line x1="300" y1="0" x2="300" y2="200" stroke="#00caff" stroke-width="0.5"/>
      <!-- Margin -->
      <rect x="0" y="0" width="20" height="200" fill="#00caff" opacity="0.04"/>
      <rect x="280" y="0" width="20" height="200" fill="#00caff" opacity="0.04"/>
      <rect x="20" y="0" width="260" height="20" fill="#00caff" opacity="0.04"/>
      <rect x="20" y="180" width="260" height="20" fill="#00caff" opacity="0.04"/>
      <line x1="20" y1="0" x2="20" y2="200" stroke="#00caff" stroke-width="0.7"/>
      <line x1="280" y1="0" x2="280" y2="200" stroke="#00caff" stroke-width="0.7"/>
      <line x1="0" y1="20" x2="300" y2="20" stroke="#00caff" stroke-width="0.7"/>
      <line x1="0" y1="180" x2="300" y2="180" stroke="#00caff" stroke-width="0.7"/>
      <!-- Columns: 260px work, 3 cols, 2 gutters of 10 = 20, (260-20)/3=80 -->
      <line x1="100" y1="0" x2="100" y2="200" stroke="#00caff" stroke-width="0.7"/>
      <line x1="110" y1="0" x2="110" y2="200" stroke="#00caff" stroke-width="0.7"/>
      <line x1="190" y1="0" x2="190" y2="200" stroke="#00caff" stroke-width="0.7"/>
      <line x1="200" y1="0" x2="200" y2="200" stroke="#00caff" stroke-width="0.7"/>
      <!-- Row: 160px work, 2 rows, 1 gutter of 10, (160-10)/2=75 -->
      <line x1="0" y1="95" x2="300" y2="95" stroke="#00caff" stroke-width="0.7"/>
      <line x1="0" y1="105" x2="300" y2="105" stroke="#00caff" stroke-width="0.7"/>
      <!-- Gutter highlights -->
      <rect x="100" y="20" width="10" height="160" fill="#00caff" opacity="0.08"/>
      <rect x="190" y="20" width="10" height="160" fill="#00caff" opacity="0.08"/>
      <rect x="20" y="95" width="260" height="10" fill="#00caff" opacity="0.08"/>
    </g>

    <!-- Step 3: Checkerboard shapes on gutter+margin grid (f8-f11) -->
    <!-- Cells: (20,20,80×75), (110,20,80×75), (200,20,80×75), (20,105,80×75), (110,105,80×75), (200,105,80×75) -->
    <g><animate attributeName="opacity" values="0;0;0;0;0;0;0;0;0.9;0.9;0.9;0.9;0;0;0;0" dur="16s" repeatCount="indefinite"/>
      <!-- Grid lines (reuse gutter+margin layout, thin) -->
      <line x1="0" y1="0" x2="300" y2="0" stroke="#00caff" stroke-width="0.4"/>
      <line x1="0" y1="200" x2="300" y2="200" stroke="#00caff" stroke-width="0.4"/>
      <line x1="0" y1="0" x2="0" y2="200" stroke="#00caff" stroke-width="0.4"/>
      <line x1="300" y1="0" x2="300" y2="200" stroke="#00caff" stroke-width="0.4"/>
      <line x1="20" y1="0" x2="20" y2="200" stroke="#00caff" stroke-width="0.4"/>
      <line x1="280" y1="0" x2="280" y2="200" stroke="#00caff" stroke-width="0.4"/>
      <line x1="0" y1="20" x2="300" y2="20" stroke="#00caff" stroke-width="0.4"/>
      <line x1="0" y1="180" x2="300" y2="180" stroke="#00caff" stroke-width="0.4"/>
      <line x1="100" y1="0" x2="100" y2="200" stroke="#00caff" stroke-width="0.4"/>
      <line x1="110" y1="0" x2="110" y2="200" stroke="#00caff" stroke-width="0.4"/>
      <line x1="190" y1="0" x2="190" y2="200" stroke="#00caff" stroke-width="0.4"/>
      <line x1="200" y1="0" x2="200" y2="200" stroke="#00caff" stroke-width="0.4"/>
      <line x1="0" y1="95" x2="300" y2="95" stroke="#00caff" stroke-width="0.4"/>
      <line x1="0" y1="105" x2="300" y2="105" stroke="#00caff" stroke-width="0.4"/>
      <!-- Black cells: (row+col)%2==0 → (0,0),(0,2),(1,1) -->
      <rect x="20" y="20" width="80" height="75" fill="#000000" opacity="0.7"/>
      <rect x="200" y="20" width="80" height="75" fill="#000000" opacity="0.7"/>
      <rect x="110" y="105" width="80" height="75" fill="#000000" opacity="0.7"/>
      <!-- White cells: (row+col)%2==1 → (0,1),(1,0),(1,2) -->
      <rect x="110" y="20" width="80" height="75" fill="#ffffff" opacity="0.7"/>
      <rect x="20" y="105" width="80" height="75" fill="#ffffff" opacity="0.7"/>
      <rect x="200" y="105" width="80" height="75" fill="#ffffff" opacity="0.7"/>
    </g>

    <!-- Step 4: Frames with X diagonals on gutter+margin grid (f12-f15) -->
    <g><animate attributeName="opacity" values="0;0;0;0;0;0;0;0;0;0;0;0;0.9;0.9;0.9;0.9" dur="16s" repeatCount="indefinite"/>
      <!-- Grid lines (thin) -->
      <line x1="0" y1="0" x2="300" y2="0" stroke="#00caff" stroke-width="0.4"/>
      <line x1="0" y1="200" x2="300" y2="200" stroke="#00caff" stroke-width="0.4"/>
      <line x1="0" y1="0" x2="0" y2="200" stroke="#00caff" stroke-width="0.4"/>
      <line x1="300" y1="0" x2="300" y2="200" stroke="#00caff" stroke-width="0.4"/>
      <line x1="20" y1="0" x2="20" y2="200" stroke="#00caff" stroke-width="0.4"/>
      <line x1="280" y1="0" x2="280" y2="200" stroke="#00caff" stroke-width="0.4"/>
      <line x1="0" y1="20" x2="300" y2="20" stroke="#00caff" stroke-width="0.4"/>
      <line x1="0" y1="180" x2="300" y2="180" stroke="#00caff" stroke-width="0.4"/>
      <line x1="100" y1="0" x2="100" y2="200" stroke="#00caff" stroke-width="0.4"/>
      <line x1="110" y1="0" x2="110" y2="200" stroke="#00caff" stroke-width="0.4"/>
      <line x1="190" y1="0" x2="190" y2="200" stroke="#00caff" stroke-width="0.4"/>
      <line x1="200" y1="0" x2="200" y2="200" stroke="#00caff" stroke-width="0.4"/>
      <line x1="0" y1="95" x2="300" y2="95" stroke="#00caff" stroke-width="0.4"/>
      <line x1="0" y1="105" x2="300" y2="105" stroke="#00caff" stroke-width="0.4"/>
      <!-- Frame borders -->
      <rect x="20" y="20" width="80" height="75" fill="none" stroke="#8b8b97" stroke-width="0.8"/>
      <rect x="110" y="20" width="80" height="75" fill="none" stroke="#8b8b97" stroke-width="0.8"/>
      <rect x="200" y="20" width="80" height="75" fill="none" stroke="#8b8b97" stroke-width="0.8"/>
      <rect x="20" y="105" width="80" height="75" fill="none" stroke="#8b8b97" stroke-width="0.8"/>
      <rect x="110" y="105" width="80" height="75" fill="none" stroke="#8b8b97" stroke-width="0.8"/>
      <rect x="200" y="105" width="80" height="75" fill="none" stroke="#8b8b97" stroke-width="0.8"/>
      <!-- X diagonals: Row 1 -->
      <line x1="20" y1="20" x2="100" y2="95" stroke="#8b8b97" stroke-width="0.6"/>
      <line x1="100" y1="20" x2="20" y2="95" stroke="#8b8b97" stroke-width="0.6"/>
      <line x1="110" y1="20" x2="190" y2="95" stroke="#8b8b97" stroke-width="0.6"/>
      <line x1="190" y1="20" x2="110" y2="95" stroke="#8b8b97" stroke-width="0.6"/>
      <line x1="200" y1="20" x2="280" y2="95" stroke="#8b8b97" stroke-width="0.6"/>
      <line x1="280" y1="20" x2="200" y2="95" stroke="#8b8b97" stroke-width="0.6"/>
      <!-- X diagonals: Row 2 -->
      <line x1="20" y1="105" x2="100" y2="180" stroke="#8b8b97" stroke-width="0.6"/>
      <line x1="100" y1="105" x2="20" y2="180" stroke="#8b8b97" stroke-width="0.6"/>
      <line x1="110" y1="105" x2="190" y2="180" stroke="#8b8b97" stroke-width="0.6"/>
      <line x1="190" y1="105" x2="110" y2="180" stroke="#8b8b97" stroke-width="0.6"/>
      <line x1="200" y1="105" x2="280" y2="180" stroke="#8b8b97" stroke-width="0.6"/>
      <line x1="280" y1="105" x2="200" y2="180" stroke="#8b8b97" stroke-width="0.6"/>
    </g>
  </g>
  <g font-family="Arial,sans-serif" font-size="13.5" fill="#60a5fa" font-weight="600" text-anchor="middle">
    <text x="190" y="248"><animate attributeName="opacity" values="1;1;1;1;0;0;0;0;0;0;0;0;0;0;0;0" dur="16s" repeatCount="indefinite"/>3 × 2 Grid</text>
    <text x="190" y="248"><animate attributeName="opacity" values="0;0;0;0;1;1;1;1;0;0;0;0;0;0;0;0" dur="16s" repeatCount="indefinite"/>3 × 2 + Gutters + Margins</text>
    <text x="190" y="248"><animate attributeName="opacity" values="0;0;0;0;0;0;0;0;1;1;1;1;0;0;0;0" dur="16s" repeatCount="indefinite"/>Create Shapes (Checkerboard)</text>
    <text x="190" y="248"><animate attributeName="opacity" values="0;0;0;0;0;0;0;0;0;0;0;0;1;1;1;1" dur="16s" repeatCount="indefinite"/>Create Frames</text>
  </g>
</svg>