<?xml version="1.0" encoding="UTF-8"?>
<svg viewBox="0 0 380 260" xmlns="http://www.w3.org/2000/svg">
  <rect width="380" height="260" rx="8" fill="#141417" stroke="#222228" stroke-width="1"/>
  <g transform="translate(40,32)">
    <rect width="300" height="200" fill="#1a2332" rx="2"/>
    <!-- Step 1: Equal margins 30px -->
    <g><animate attributeName="opacity" values="0;0.9;0.9;0.9;0.9;0;0;0;0;0;0" dur="9s" repeatCount="indefinite"/>
      <rect x="0" y="0" width="300" height="30" fill="#00caff" opacity="0.06"/>
      <rect x="0" y="170" width="300" height="30" fill="#00caff" opacity="0.06"/>
      <rect x="0" y="30" width="30" height="140" fill="#00caff" opacity="0.06"/>
      <rect x="270" y="30" width="30" height="140" fill="#00caff" opacity="0.06"/>
      <line x1="0" y1="0" x2="300" y2="0" stroke="#00caff" stroke-width="0.7"/>
      <line x1="0" y1="200" x2="300" y2="200" stroke="#00caff" stroke-width="0.7"/>
      <line x1="0" y1="0" x2="0" y2="200" stroke="#00caff" stroke-width="0.7"/>
      <line x1="300" y1="0" x2="300" y2="200" stroke="#00caff" stroke-width="0.7"/>
      <line x1="0" y1="30" x2="300" y2="30" stroke="#00caff" stroke-width="0.7"/>
      <line x1="0" y1="170" x2="300" y2="170" stroke="#00caff" stroke-width="0.7"/>
      <line x1="30" y1="0" x2="30" y2="200" stroke="#00caff" stroke-width="0.7"/>
      <line x1="270" y1="0" x2="270" y2="200" stroke="#00caff" stroke-width="0.7"/>
    </g>
    <!-- Step 2: Asymmetric T20 B40 L50 R50 -->
    <g><animate attributeName="opacity" values="0;0;0;0;0;0;0.9;0.9;0.9;0.9;0" dur="9s" repeatCount="indefinite"/>
      <rect x="0" y="0" width="300" height="20" fill="#00caff" opacity="0.06"/>
      <rect x="0" y="160" width="300" height="40" fill="#00caff" opacity="0.06"/>
      <rect x="0" y="20" width="50" height="140" fill="#00caff" opacity="0.06"/>
      <rect x="250" y="20" width="50" height="140" fill="#00caff" opacity="0.06"/>
      <line x1="0" y1="0" x2="300" y2="0" stroke="#00caff" stroke-width="0.7"/>
      <line x1="0" y1="200" x2="300" y2="200" stroke="#00caff" stroke-width="0.7"/>
      <line x1="0" y1="0" x2="0" y2="200" stroke="#00caff" stroke-width="0.7"/>
      <line x1="300" y1="0" x2="300" y2="200" stroke="#00caff" stroke-width="0.7"/>
      <line x1="0" y1="20" x2="300" y2="20" stroke="#00caff" stroke-width="0.7"/>
      <line x1="0" y1="160" x2="300" y2="160" stroke="#00caff" stroke-width="0.7"/>
      <line x1="50" y1="0" x2="50" y2="200" stroke="#00caff" stroke-width="0.7"/>
      <line x1="250" y1="0" x2="250" y2="200" stroke="#00caff" stroke-width="0.7"/>
    </g>
  </g>
  <g font-family="Arial,sans-serif" font-size="13.5" fill="#60a5fa" font-weight="600" text-anchor="middle">
    <text x="190" y="248"><animate attributeName="opacity" values="0;1;1;1;1;0;0;0;0;0;0" dur="9s" repeatCount="indefinite"/>Equal Margins — 30 px all sides</text>
    <text x="190" y="248"><animate attributeName="opacity" values="0;0;0;0;0;0;1;1;1;1;0" dur="9s" repeatCount="indefinite"/>Asymmetric — T:20  B:40  L:50  R:50</text>
  </g>
</svg>