<?xml version="1.0" encoding="UTF-8"?>
<svg viewBox="0 0 380 260" xmlns="http://www.w3.org/2000/svg">
  <!-- 18s, 18 frames × 1s. 6 steps × 3 frames each.
       Golden ratio on 300×200:
         38.2%/61.8%: h=76.4/123.6, v=114.6/185.4
         Phi grid 1:φ:1 (27.64%/72.36%): h=55.3/144.7, v=82.9/217.1
  -->
  <rect width="380" height="260" rx="8" fill="#141417" stroke="#222228" stroke-width="1"/>
  <g transform="translate(40,32)">
    <rect width="300" height="200" fill="#1a2332" rx="2"/>

    <!-- Step 1: 3×3 grid (f0-f2) -->
    <g><animate attributeName="opacity" values="0.9;0.9;0.9;0;0;0;0;0;0;0;0;0;0;0;0;0;0;0" dur="18s" repeatCount="indefinite"/>
      <line x1="0" y1="0" x2="300" y2="0" stroke="#00caff" stroke-width="0.7"/>
      <line x1="0" y1="66.7" x2="300" y2="66.7" stroke="#00caff" stroke-width="0.7"/>
      <line x1="0" y1="133.3" x2="300" y2="133.3" stroke="#00caff" stroke-width="0.7"/>
      <line x1="0" y1="200" x2="300" y2="200" stroke="#00caff" stroke-width="0.7"/>
      <line x1="0" y1="0" x2="0" y2="200" stroke="#00caff" stroke-width="0.7"/>
      <line x1="100" y1="0" x2="100" y2="200" stroke="#00caff" stroke-width="0.7"/>
      <line x1="200" y1="0" x2="200" y2="200" stroke="#00caff" stroke-width="0.7"/>
      <line x1="300" y1="0" x2="300" y2="200" stroke="#00caff" stroke-width="0.7"/>
    </g>

    <!-- Step 2: 5×5 grid (f3-f5) -->
    <g><animate attributeName="opacity" values="0;0;0;0.9;0.9;0.9;0;0;0;0;0;0;0;0;0;0;0;0" dur="18s" repeatCount="indefinite"/>
      <line x1="0" y1="0" x2="0" y2="200" stroke="#00caff" stroke-width="0.6"/>
      <line x1="60" y1="0" x2="60" y2="200" stroke="#00caff" stroke-width="0.6"/>
      <line x1="120" y1="0" x2="120" y2="200" stroke="#00caff" stroke-width="0.6"/>
      <line x1="180" y1="0" x2="180" y2="200" stroke="#00caff" stroke-width="0.6"/>
      <line x1="240" y1="0" x2="240" y2="200" stroke="#00caff" stroke-width="0.6"/>
      <line x1="300" y1="0" x2="300" y2="200" stroke="#00caff" stroke-width="0.6"/>
      <line x1="0" y1="0" x2="300" y2="0" stroke="#00caff" stroke-width="0.6"/>
      <line x1="0" y1="40" x2="300" y2="40" stroke="#00caff" stroke-width="0.6"/>
      <line x1="0" y1="80" x2="300" y2="80" stroke="#00caff" stroke-width="0.6"/>
      <line x1="0" y1="120" x2="300" y2="120" stroke="#00caff" stroke-width="0.6"/>
      <line x1="0" y1="160" x2="300" y2="160" stroke="#00caff" stroke-width="0.6"/>
      <line x1="0" y1="200" x2="300" y2="200" stroke="#00caff" stroke-width="0.6"/>
    </g>

    <!-- Step 3: Golden Ratio Full — 4 lines (f6-f8) -->
    <g><animate attributeName="opacity" values="0;0;0;0;0;0;0.9;0.9;0.9;0;0;0;0;0;0;0;0;0" dur="18s" repeatCount="indefinite"/>
      <line x1="0" y1="76.4" x2="300" y2="76.4" stroke="#00caff" stroke-width="0.7"/>
      <line x1="0" y1="123.6" x2="300" y2="123.6" stroke="#00caff" stroke-width="0.7"/>
      <line x1="114.6" y1="0" x2="114.6" y2="200" stroke="#00caff" stroke-width="0.7"/>
      <line x1="185.4" y1="0" x2="185.4" y2="200" stroke="#00caff" stroke-width="0.7"/>
    </g>

    <!-- Step 4: Golden Ratio H-Both — 2 horizontal lines only (f9-f11) -->
    <g><animate attributeName="opacity" values="0;0;0;0;0;0;0;0;0;0.9;0.9;0.9;0;0;0;0;0;0" dur="18s" repeatCount="indefinite"/>
      <line x1="0" y1="76.4" x2="300" y2="76.4" stroke="#00caff" stroke-width="0.7"/>
      <line x1="0" y1="123.6" x2="300" y2="123.6" stroke="#00caff" stroke-width="0.7"/>
    </g>

    <!-- Step 5: Phi Grid — 1:φ:1 ratio, 4 lines (f12-f14) -->
    <g><animate attributeName="opacity" values="0;0;0;0;0;0;0;0;0;0;0;0;0.9;0.9;0.9;0;0;0" dur="18s" repeatCount="indefinite"/>
      <line x1="0" y1="55.3" x2="300" y2="55.3" stroke="#00caff" stroke-width="0.7"/>
      <line x1="0" y1="144.7" x2="300" y2="144.7" stroke="#00caff" stroke-width="0.7"/>
      <line x1="82.9" y1="0" x2="82.9" y2="200" stroke="#00caff" stroke-width="0.7"/>
      <line x1="217.1" y1="0" x2="217.1" y2="200" stroke="#00caff" stroke-width="0.7"/>
    </g>

    <!-- Step 6: 16:9 Aspect Ratio (f15-f17) -->
    <g><animate attributeName="opacity" values="0;0;0;0;0;0;0;0;0;0;0;0;0;0;0;0.9;0.9;0.9" dur="18s" repeatCount="indefinite"/>
      <line x1="0" y1="0" x2="0" y2="200" stroke="#00caff" stroke-width="0.5"/>
      <line x1="300" y1="0" x2="300" y2="200" stroke="#00caff" stroke-width="0.5"/>
      <line x1="0" y1="15.6" x2="300" y2="15.6" stroke="#00caff" stroke-width="0.8"/>
      <line x1="0" y1="184.4" x2="300" y2="184.4" stroke="#00caff" stroke-width="0.8"/>
      <rect x="0" y="0" width="300" height="15.6" fill="#00caff" opacity="0.04"/>
      <rect x="0" y="184.4" width="300" height="15.6" fill="#00caff" opacity="0.04"/>
      <text x="150" y="105" text-anchor="middle" font-family="Arial,sans-serif" font-size="14" fill="#00caff" opacity="0.4" font-weight="700">16 : 9</text>
    </g>
  </g>
  <g font-family="Arial,sans-serif" font-size="13.5" fill="#60a5fa" font-weight="600" text-anchor="middle">
    <text x="190" y="248"><animate attributeName="opacity" values="1;1;1;0;0;0;0;0;0;0;0;0;0;0;0;0;0;0" dur="18s" repeatCount="indefinite"/>3 × 3 Grid</text>
    <text x="190" y="248"><animate attributeName="opacity" values="0;0;0;1;1;1;0;0;0;0;0;0;0;0;0;0;0;0" dur="18s" repeatCount="indefinite"/>5 × 5 Grid</text>
    <text x="190" y="248"><animate attributeName="opacity" values="0;0;0;0;0;0;1;1;1;0;0;0;0;0;0;0;0;0" dur="18s" repeatCount="indefinite"/>Golden Ratio: Full</text>
    <text x="190" y="248"><animate attributeName="opacity" values="0;0;0;0;0;0;0;0;0;1;1;1;0;0;0;0;0;0" dur="18s" repeatCount="indefinite"/>Golden Ratio: H-Both</text>
    <text x="190" y="248"><animate attributeName="opacity" values="0;0;0;0;0;0;0;0;0;0;0;0;1;1;1;0;0;0" dur="18s" repeatCount="indefinite"/>Phi Grid (1 : φ : 1)</text>
    <text x="190" y="248"><animate attributeName="opacity" values="0;0;0;0;0;0;0;0;0;0;0;0;0;0;0;1;1;1" dur="18s" repeatCount="indefinite"/>Aspect Ratio: 16 : 9</text>
  </g>
</svg>