<?xml version="1.0" encoding="UTF-8"?>
<svg viewBox="0 0 1060 390" xmlns="http://www.w3.org/2000/svg">
  <rect width="1060" height="390" fill="#09090b" rx="12"/>

  <!-- ===== Plugin Panel (center) ===== -->
  <g transform="translate(400,20)">
    <rect width="260" height="340" fill="#535353" rx="4" stroke="#2a2a2a" stroke-width="1"/>

    <!-- === Quick Actions (no title bar) === -->
    <g transform="translate(8,8)">
      <rect width="244" height="130" fill="#3d3d3d" rx="3" stroke="#2a2a2a" stroke-width="0.5"/>

      <!-- Row 1: Top, Bottom, Left, Right, H-Center, V-Center, Border, Midlines -->
      <g transform="translate(4,4)" stroke="#b8b8b8" stroke-width="1.2" fill="none">
        <!-- btn bg helper -->
        <g fill="#464646" stroke="#2a2a2a" stroke-width="0.5">
          <rect x="0" y="0" width="28" height="28" rx="2"/>
          <rect x="30" y="0" width="28" height="28" rx="2"/>
          <rect x="60" y="0" width="28" height="28" rx="2"/>
          <rect x="90" y="0" width="28" height="28" rx="2"/>
          <rect x="120" y="0" width="28" height="28" rx="2"/>
          <rect x="150" y="0" width="28" height="28" rx="2"/>
          <rect x="180" y="0" width="28" height="28" rx="2"/>
          <rect x="210" y="0" width="26" height="28" rx="2"/>
        </g>
        <!-- Top: line at top + arrow down -->
        <g transform="translate(4,3) scale(0.92)"><line x1="1" y1="1" x2="23" y2="1" stroke-width="2"/><polyline points="12,1 12,17"/><polyline points="8,13 12,17 16,13"/></g>
        <!-- Bottom -->
        <g transform="translate(34,3) scale(0.92)"><line x1="1" y1="23" x2="23" y2="23" stroke-width="2"/><polyline points="12,23 12,7"/><polyline points="8,11 12,7 16,11"/></g>
        <!-- Left -->
        <g transform="translate(64,3) scale(0.92)"><line x1="1" y1="1" x2="1" y2="23" stroke-width="2"/><polyline points="1,12 17,12"/><polyline points="13,8 17,12 13,16"/></g>
        <!-- Right -->
        <g transform="translate(94,3) scale(0.92)"><line x1="23" y1="1" x2="23" y2="23" stroke-width="2"/><polyline points="23,12 7,12"/><polyline points="11,8 7,12 11,16"/></g>
        <!-- H-Center -->
        <g transform="translate(124,3) scale(0.92)"><line x1="1" y1="12" x2="23" y2="12" stroke-width="2"/></g>
        <!-- V-Center -->
        <g transform="translate(154,3) scale(0.92)"><line x1="12" y1="1" x2="12" y2="23" stroke-width="2"/></g>
        <!-- Border -->
        <g transform="translate(184,3) scale(0.92)"><rect x="1" y="1" width="22" height="22" stroke-width="2"/></g>
        <!-- Midlines -->
        <g transform="translate(213,3) scale(0.88)"><line x1="12" y1="1" x2="12" y2="23" stroke-width="2"/><line x1="1" y1="12" x2="23" y2="12" stroke-width="2"/></g>
      </g>

      <!-- Row 2: 2x2, 3x3, 4x4, 5x5, 6x6, Golden, 4:3, 16:9 -->
      <g transform="translate(4,34)" stroke="#b8b8b8" stroke-width="1" fill="none">
        <g fill="#464646" stroke="#2a2a2a" stroke-width="0.5">
          <rect x="0" y="0" width="28" height="28" rx="2"/>
          <rect x="30" y="0" width="28" height="28" rx="2"/>
          <rect x="60" y="0" width="28" height="28" rx="2"/>
          <rect x="90" y="0" width="28" height="28" rx="2"/>
          <rect x="120" y="0" width="28" height="28" rx="2"/>
          <rect x="150" y="0" width="28" height="28" rx="2"/>
          <rect x="180" y="0" width="28" height="28" rx="2"/>
          <rect x="210" y="0" width="26" height="28" rx="2"/>
        </g>
        <!-- 2x2 -->
        <g transform="translate(4,3) scale(0.92)"><rect x="1" y="1" width="22" height="22" stroke-width="2"/><line x1="1" y1="12" x2="23" y2="12" stroke-width="1.5"/><line x1="12" y1="1" x2="12" y2="23" stroke-width="1.5"/></g>
        <!-- 3x3 -->
        <g transform="translate(34,3) scale(0.92)"><rect x="1" y="1" width="22" height="22" stroke-width="2"/><line x1="1" y1="8.3" x2="23" y2="8.3" stroke-width="1"/><line x1="1" y1="15.7" x2="23" y2="15.7" stroke-width="1"/><line x1="8.3" y1="1" x2="8.3" y2="23" stroke-width="1"/><line x1="15.7" y1="1" x2="15.7" y2="23" stroke-width="1"/></g>
        <!-- 4x4 -->
        <g transform="translate(64,3) scale(0.92)"><rect x="1" y="1" width="22" height="22" stroke-width="2"/><line x1="1" y1="6.5" x2="23" y2="6.5" stroke-width="1"/><line x1="1" y1="12" x2="23" y2="12" stroke-width="1"/><line x1="1" y1="17.5" x2="23" y2="17.5" stroke-width="1"/><line x1="6.5" y1="1" x2="6.5" y2="23" stroke-width="1"/><line x1="12" y1="1" x2="12" y2="23" stroke-width="1"/><line x1="17.5" y1="1" x2="17.5" y2="23" stroke-width="1"/></g>
        <!-- 5x5 (simplified) -->
        <g transform="translate(94,3) scale(0.92)"><rect x="1" y="1" width="22" height="22" stroke-width="2"/><line x1="5.4" y1="1" x2="5.4" y2="23" stroke-width="0.8"/><line x1="9.8" y1="1" x2="9.8" y2="23" stroke-width="0.8"/><line x1="14.2" y1="1" x2="14.2" y2="23" stroke-width="0.8"/><line x1="18.6" y1="1" x2="18.6" y2="23" stroke-width="0.8"/><line x1="1" y1="5.4" x2="23" y2="5.4" stroke-width="0.8"/><line x1="1" y1="9.8" x2="23" y2="9.8" stroke-width="0.8"/><line x1="1" y1="14.2" x2="23" y2="14.2" stroke-width="0.8"/><line x1="1" y1="18.6" x2="23" y2="18.6" stroke-width="0.8"/></g>
        <!-- 6x6 (simplified) -->
        <g transform="translate(124,3) scale(0.92)"><rect x="1" y="1" width="22" height="22" stroke-width="2"/><line x1="4.7" y1="1" x2="4.7" y2="23" stroke-width="0.7"/><line x1="8.3" y1="1" x2="8.3" y2="23" stroke-width="0.7"/><line x1="12" y1="1" x2="12" y2="23" stroke-width="0.7"/><line x1="15.7" y1="1" x2="15.7" y2="23" stroke-width="0.7"/><line x1="19.3" y1="1" x2="19.3" y2="23" stroke-width="0.7"/><line x1="1" y1="4.7" x2="23" y2="4.7" stroke-width="0.7"/><line x1="1" y1="8.3" x2="23" y2="8.3" stroke-width="0.7"/><line x1="1" y1="12" x2="23" y2="12" stroke-width="0.7"/><line x1="1" y1="15.7" x2="23" y2="15.7" stroke-width="0.7"/><line x1="1" y1="19.3" x2="23" y2="19.3" stroke-width="0.7"/></g>
        <!-- Golden Ratio -->
        <g transform="translate(154,3) scale(0.92)"><rect x="1" y="1" width="22" height="22" stroke-width="2"/><line x1="9.4" y1="1" x2="9.4" y2="23" stroke-width="1" stroke="#DAA520"/><line x1="14.6" y1="1" x2="14.6" y2="23" stroke-width="1" stroke="#DAA520"/><line x1="1" y1="9.4" x2="23" y2="9.4" stroke-width="1" stroke="#DAA520"/><line x1="1" y1="14.6" x2="23" y2="14.6" stroke-width="1" stroke="#DAA520"/></g>
        <!-- 4:3 -->
        <g transform="translate(184,3) scale(0.92)"><rect x="2" y="4" width="20" height="16" stroke-width="1.5" rx="1"/><text x="12" y="16" text-anchor="middle" font-size="10" font-weight="bold" fill="#b8b8b8" stroke="none" font-family="Arial,sans-serif">4:3</text></g>
        <!-- 16:9 -->
        <g transform="translate(213,3) scale(0.88)"><rect x="1" y="6" width="22" height="12" stroke-width="1.5" rx="1"/><text x="12" y="15" text-anchor="middle" font-size="9" font-weight="bold" fill="#b8b8b8" stroke="none" font-family="Arial,sans-serif">16:9</text></g>
      </g>

      <!-- Row 3: px, crosshair, spotlight, lock, eye, layer edges, guide color, guide style -->
      <g transform="translate(4,64)" stroke="#b8b8b8" stroke-width="1" fill="none">
        <g fill="#464646" stroke="#2a2a2a" stroke-width="0.5">
          <rect x="0" y="0" width="28" height="28" rx="2"/>
          <rect x="30" y="0" width="28" height="28" rx="2"/>
          <rect x="60" y="0" width="28" height="28" rx="2"/>
          <rect x="90" y="0" width="28" height="28" rx="2"/>
          <rect x="120" y="0" width="28" height="28" rx="2"/>
          <rect x="150" y="0" width="28" height="28" rx="2"/>
          <rect x="180" y="0" width="28" height="28" rx="2"/>
          <rect x="210" y="0" width="26" height="28" rx="2"/>
        </g>
        <!-- px -->
        <text x="14" y="19" text-anchor="middle" font-family="Arial,sans-serif" font-size="11" fill="#b8b8b8" font-weight="700" stroke="none">px</text>
        <!-- crosshair: red crosshair at (8,8) + cursor arrow -->
        <g transform="translate(34,3) scale(0.92)"><line x1="8" y1="1" x2="8" y2="23" stroke-width="1.5" stroke="#ff4444"/><line x1="1" y1="8" x2="23" y2="8" stroke-width="1.5" stroke="#ff4444"/><path d="M8,8 L8,20 L11,17 L14,22 L17,20 L14,15 L18,12 Z" stroke-width="1.2"/></g>
        <!-- spotlight: circle r=9 + crosshair tick lines -->
        <g transform="translate(64,3) scale(0.92)"><circle cx="12" cy="12" r="9" stroke-width="2"/><line x1="12" y1="1" x2="12" y2="6" stroke-width="2" stroke-linecap="round"/><line x1="12" y1="18" x2="12" y2="23" stroke-width="2" stroke-linecap="round"/><line x1="1" y1="12" x2="6" y2="12" stroke-width="2" stroke-linecap="round"/><line x1="18" y1="12" x2="23" y2="12" stroke-width="2" stroke-linecap="round"/></g>
        <!-- lock -->
        <g transform="translate(94,3) scale(0.92)"><rect x="5" y="10" width="14" height="11" rx="1.5" stroke-width="2"/><path d="M8,10V6a4,4,0,0,1,8,0" stroke-width="2"/></g>
        <!-- eye/visibility (open eye + background guide lines) -->
        <g transform="translate(124,3) scale(0.92)"><line x1="1" y1="5" x2="23" y2="5" stroke-width="1" stroke-opacity="0.8"/><line x1="1" y1="19" x2="23" y2="19" stroke-width="1" stroke-opacity="0.8"/><line x1="7" y1="1" x2="7" y2="23" stroke-width="1" stroke-opacity="0.8"/><line x1="17" y1="1" x2="17" y2="23" stroke-width="1" stroke-opacity="0.8"/><path d="M1,12s3-7,11-7,11,7,11,7-3,7-11,7-11-7-11-7z" stroke-width="1.5"/><circle cx="12" cy="12" r="3" stroke-width="1.5"/></g>
        <!-- layer edges (edgesOff default: faded box + closed eye + slash) -->
        <g transform="translate(154,3) scale(0.92)"><rect x="1" y="1" width="22" height="22" stroke-width="1.5" stroke-opacity="0.3"/><path d="M2,12c0,0,3-4,10-4s10,4,10,4" stroke-width="1.2"/><path d="M22,12c0,0-3,4-10,4s-10-4-10-4" stroke-width="1.2" stroke-dasharray="2,2"/><line x1="3" y1="3" x2="21" y2="21" stroke-width="1.5"/></g>
        <!-- guide color (colored square swatch, default cyan) -->
        <g transform="translate(184,3) scale(0.92)"><rect x="1" y="1" width="22" height="22" rx="2" stroke="none" fill="#00ffff"/></g>
        <!-- guide style (vertical solid line, default, matching guide color) -->
        <g transform="translate(213,3) scale(0.88)"><line x1="12" y1="2" x2="12" y2="22" stroke-width="2.5" stroke="#00ffff" stroke-linecap="round"/></g>
      </g>

      <!-- Row 4: clear all, clear H, clear V, clear outside, clear canvas, clear selection, keep, collapse -->
      <g transform="translate(4,94)" stroke="#b8b8b8" stroke-width="1" fill="none">
        <g fill="#5a3a3a" stroke="#2a2a2a" stroke-width="0.5">
          <rect x="0" y="0" width="28" height="28" rx="2"/>
          <rect x="30" y="0" width="28" height="28" rx="2"/>
          <rect x="60" y="0" width="28" height="28" rx="2"/>
          <rect x="90" y="0" width="28" height="28" rx="2"/>
          <rect x="120" y="0" width="28" height="28" rx="2"/>
          <rect x="150" y="0" width="28" height="28" rx="2"/>
          <rect x="180" y="0" width="28" height="28" rx="2" fill="#3a5a3a"/>
          <rect x="210" y="0" width="26" height="28" rx="2" fill="#464646"/>
        </g>
        <!-- Clear All: trash + 3x3 grid inside -->
        <g transform="translate(4,2) scale(0.92)"><path d="M8,3 L8,1.5 C8,1 9,1 10,1 L14,1 C15,1 16,1.5 16,1.5 L16,3" stroke-width="1.5"/><rect x="4" y="3" width="16" height="2.5" rx="1" stroke-width="1.5"/><rect x="5" y="5.5" width="14" height="17" rx="1" stroke-width="1.5"/><line x1="9" y1="9" x2="9" y2="19" stroke-width="1"/><line x1="12" y1="9" x2="12" y2="19" stroke-width="1"/><line x1="15" y1="9" x2="15" y2="19" stroke-width="1"/><line x1="7" y1="11.5" x2="17" y2="11.5" stroke-width="1"/><line x1="7" y1="14" x2="17" y2="14" stroke-width="1"/><line x1="7" y1="16.5" x2="17" y2="16.5" stroke-width="1"/></g>
        <!-- Clear H: trash + 3 horizontal lines inside -->
        <g transform="translate(34,2) scale(0.92)"><path d="M8,3 L8,1.5 C8,1 9,1 10,1 L14,1 C15,1 16,1.5 16,1.5 L16,3" stroke-width="1.5"/><rect x="4" y="3" width="16" height="2.5" rx="1" stroke-width="1.5"/><rect x="5" y="5.5" width="14" height="17" rx="1" stroke-width="1.5"/><line x1="7" y1="11" x2="17" y2="11" stroke-width="1.2"/><line x1="7" y1="14" x2="17" y2="14" stroke-width="1.2"/><line x1="7" y1="17" x2="17" y2="17" stroke-width="1.2"/></g>
        <!-- Clear V: trash + 3 vertical lines inside -->
        <g transform="translate(64,2) scale(0.92)"><path d="M8,3 L8,1.5 C8,1 9,1 10,1 L14,1 C15,1 16,1.5 16,1.5 L16,3" stroke-width="1.5"/><rect x="4" y="3" width="16" height="2.5" rx="1" stroke-width="1.5"/><rect x="5" y="5.5" width="14" height="17" rx="1" stroke-width="1.5"/><line x1="9" y1="9" x2="9" y2="19" stroke-width="1.2"/><line x1="12" y1="9" x2="12" y2="19" stroke-width="1.2"/><line x1="15" y1="9" x2="15" y2="19" stroke-width="1.2"/></g>
        <!-- Clear Outside: trash + crosshair with red square (canvas) in center -->
        <g transform="translate(94,2) scale(0.92)"><path d="M8,3 L8,1.5 C8,1 9,1 10,1 L14,1 C15,1 16,1.5 16,1.5 L16,3" stroke-width="1.5"/><rect x="4" y="3" width="16" height="2.5" rx="1" stroke-width="1.5"/><rect x="5" y="5.5" width="14" height="17" rx="1" stroke-width="1.5"/><line x1="12" y1="9" x2="12" y2="19" stroke-width="1.2"/><line x1="7" y1="14" x2="17" y2="14" stroke-width="1.2"/><rect x="9.5" y="11.5" width="5" height="5" fill="#ff4444" stroke="none"/></g>
        <!-- Clear on Canvas: trash + red square (canvas) with outside grid lines -->
        <g transform="translate(124,2) scale(0.92)"><path d="M8,3 L8,1.5 C8,1 9,1 10,1 L14,1 C15,1 16,1.5 16,1.5 L16,3" stroke-width="1.5"/><rect x="4" y="3" width="16" height="2.5" rx="1" stroke-width="1.5"/><rect x="5" y="5.5" width="14" height="17" rx="1" stroke-width="1.5"/><rect x="9.5" y="11.5" width="5" height="5" fill="#ff4444" stroke="none"/><line x1="7" y1="10" x2="17" y2="10" stroke-width="1.2"/><line x1="7" y1="18" x2="17" y2="18" stroke-width="1.2"/><line x1="8" y1="9" x2="8" y2="19" stroke-width="1.2"/><line x1="16" y1="9" x2="16" y2="19" stroke-width="1.2"/></g>
        <!-- Clear on Selection: trash + white hollow rect with crosshair -->
        <g transform="translate(154,2) scale(0.92)"><path d="M8,3 L8,1.5 C8,1 9,1 10,1 L14,1 C15,1 16,1.5 16,1.5 L16,3" stroke-width="1.5"/><rect x="4" y="3" width="16" height="2.5" rx="1" stroke-width="1.5"/><rect x="5" y="5.5" width="14" height="17" rx="1" stroke-width="1.5"/><rect x="8" y="10" width="8" height="8" fill="none" stroke="#e8e8e8" stroke-width="1.2"/><line x1="12" y1="8" x2="12" y2="20" stroke-width="1.2"/><line x1="6.5" y1="14" x2="17.5" y2="14" stroke-width="1.2"/></g>
        <!-- keep (green checkmark) -->
        <g transform="translate(184,3) scale(0.92)"><polyline points="20,6 9,17 4,12" stroke-width="2.5" stroke="#4caf50" stroke-linecap="round" stroke-linejoin="round"/></g>
        <!-- collapse -->
        <g transform="translate(213,3) scale(0.88)"><polyline points="6,12 12,6 18,12" stroke-width="1.5"/><polyline points="6,17 12,11 18,17" stroke-width="1.5"/><polyline points="6,22 12,16 18,22" stroke-width="1.5"/></g>
      </g>
    </g>

    <!-- === Margin-Go-Round (collapsed) === -->
    <g transform="translate(8,146)">
      <rect width="244" height="30" fill="#3d3d3d" rx="3" stroke="#2a2a2a" stroke-width="0.5"/>
      <text x="10" y="20" font-family="Arial,sans-serif" font-size="10.5" fill="#e8e8e8" font-weight="500">Margin-Go-Round</text>
      <polyline points="230,11 234,16 238,11" fill="none" stroke="#b8b8b8" stroke-width="1.5" transform="rotate(-90,234,14)"/>
    </g>

    <!-- === Grid-and-Go (collapsed) === -->
    <g transform="translate(8,184)">
      <rect width="244" height="30" fill="#3d3d3d" rx="3" stroke="#2a2a2a" stroke-width="0.5"/>
      <text x="10" y="20" font-family="Arial,sans-serif" font-size="10.5" fill="#e8e8e8" font-weight="500">Grid-and-Go</text>
      <polyline points="230,11 234,16 238,11" fill="none" stroke="#b8b8b8" stroke-width="1.5" transform="rotate(-90,234,14)"/>
    </g>

    <!-- === Some Guides Like You (collapsed) === -->
    <g transform="translate(8,222)">
      <rect width="244" height="30" fill="#3d3d3d" rx="3" stroke="#2a2a2a" stroke-width="0.5"/>
      <text x="10" y="20" font-family="Arial,sans-serif" font-size="10.5" fill="#e8e8e8" font-weight="500">Some Guides Like You</text>
      <polyline points="230,11 234,16 238,11" fill="none" stroke="#b8b8b8" stroke-width="1.5" transform="rotate(-90,234,14)"/>
    </g>

    <!-- === Geek-Set-Go (collapsed) === -->
    <g transform="translate(8,260)">
      <rect width="244" height="30" fill="#3d3d3d" rx="3" stroke="#2a2a2a" stroke-width="0.5"/>
      <text x="10" y="20" font-family="Arial,sans-serif" font-size="10.5" fill="#e8e8e8" font-weight="500">Geek-Set-Go</text>
      <polyline points="230,11 234,16 238,11" fill="none" stroke="#b8b8b8" stroke-width="1.5" transform="rotate(-90,234,14)"/>
    </g>

    <!-- === Artboard Selector (Illustrator only, not collapsible) === -->
    <g transform="translate(8,298)">
      <rect width="244" height="30" fill="#3d3d3d" rx="3" stroke="#2a2a2a" stroke-width="0.5"/>
      <!-- Artboard tool icon button -->
      <g transform="translate(2,2)">
        <rect width="26" height="26" rx="2" fill="#464646" stroke="#2a2a2a" stroke-width="0.5"/>
        <g transform="translate(3,3) scale(0.83)" stroke="#b8b8b8" stroke-width="2" fill="none">
          <line x1="11" y1="1" x2="11" y2="6" stroke-width="2.5" stroke-linecap="round"/>
          <line x1="1" y1="11" x2="6" y2="11" stroke-width="2.5" stroke-linecap="round"/>
          <path d="M9 9 L9 22 L22 22 L22 14 L17 9 Z" stroke-linejoin="round"/>
          <polyline points="17 9 17 14 22 14" stroke-linejoin="round"/>
        </g>
      </g>
      <!-- Artboard dropdown select -->
      <rect x="32" y="5" width="176" height="20" rx="2" fill="#2a2a2a" stroke="#1a1a1a" stroke-width="0.5"/>
      <text x="40" y="19" font-family="Arial,sans-serif" font-size="10" fill="#e8e8e8">Artboard 1</text>
      <!-- Dropdown arrow -->
      <polyline points="194,12 198,16 202,12" fill="none" stroke="#b8b8b8" stroke-width="1.2"/>
      <!-- Refresh button -->
      <g transform="translate(216,2)">
        <rect width="26" height="26" rx="2" fill="#464646" stroke="#2a2a2a" stroke-width="0.5"/>
        <g transform="translate(4,4) scale(0.75)">
          <path d="M19 8l-4 4h3c0 3.31-2.69 6-6 6-1.01 0-1.97-.25-2.8-.7l-1.46 1.46C8.97 19.54 10.43 20 12 20c4.42 0 8-3.58 8-8h3l-4-4zM6 12c0-3.31 2.69-6 6-6 1.01 0 1.97.25 2.8.7l1.46-1.46C15.03 4.46 13.57 4 12 4c-4.42 0-8 3.58-8 8H1l4 4 4-4H6z" fill="#b8b8b8" stroke="none"/>
        </g>
      </g>
    </g>
  </g>

  <!-- ===== Annotations (alternating left / right) ===== -->

  <!-- Row 1: Edge Guides — LEFT -->
  <circle cx="400" cy="46" r="2.5" fill="#3b82f6"/>
  <line x1="400" y1="46" x2="370" y2="46" stroke="#3b82f6" stroke-width="1" stroke-dasharray="3 2"/>
  <g transform="translate(30,36)">
    <text text-anchor="end" x="340" font-family="Arial,sans-serif" font-size="14" fill="#ededf0" font-weight="600">Edge Guides</text>
    <text text-anchor="end" x="340" y="18" font-family="Arial,sans-serif" font-size="11.5" fill="#8b8b97">Top, bottom, left, right, center, border.</text>
  </g>

  <!-- Row 2: Grids & Ratios — RIGHT -->
  <circle cx="660" cy="76" r="2.5" fill="#3b82f6"/>
  <line x1="660" y1="76" x2="690" y2="76" stroke="#3b82f6" stroke-width="1" stroke-dasharray="3 2"/>
  <g transform="translate(698,64)">
    <text font-family="Arial,sans-serif" font-size="14" fill="#ededf0" font-weight="600">Grids &amp; Ratios</text>
    <text y="18" font-family="Arial,sans-serif" font-size="11.5" fill="#8b8b97">2×2 – 6×6 grids, golden ratio, aspect ratio.</text>
  </g>

  <!-- Row 3: Tools & Appearance — LEFT -->
  <circle cx="400" cy="106" r="2.5" fill="#3b82f6"/>
  <line x1="400" y1="106" x2="370" y2="106" stroke="#3b82f6" stroke-width="1" stroke-dasharray="3 2"/>
  <g transform="translate(30,96)">
    <text text-anchor="end" x="340" font-family="Arial,sans-serif" font-size="14" fill="#ededf0" font-weight="600">Tools &amp; Appearance</text>
    <text text-anchor="end" x="340" y="18" font-family="Arial,sans-serif" font-size="11.5" fill="#8b8b97">Unit, crosshair, spotlight, lock, color, style.</text>
  </g>

  <!-- Row 4: Smart Clear — RIGHT -->
  <circle cx="660" cy="136" r="2.5" fill="#3b82f6"/>
  <line x1="660" y1="136" x2="690" y2="136" stroke="#3b82f6" stroke-width="1" stroke-dasharray="3 2"/>
  <g transform="translate(698,124)">
    <text font-family="Arial,sans-serif" font-size="14" fill="#ededf0" font-weight="600">Smart Clear</text>
    <text y="18" font-family="Arial,sans-serif" font-size="11.5" fill="#8b8b97">Clear all, H, V, outside, canvas, or selection.</text>
  </g>

  <!-- Margin-Go-Round — LEFT -->
  <circle cx="400" cy="181" r="2.5" fill="#3b82f6"/>
  <line x1="400" y1="181" x2="370" y2="181" stroke="#3b82f6" stroke-width="1" stroke-dasharray="3 2"/>
  <g transform="translate(30,171)">
    <text text-anchor="end" x="340" font-family="Arial,sans-serif" font-size="14" fill="#ededf0" font-weight="600">Margin-Go-Round</text>
    <text text-anchor="end" x="340" y="18" font-family="Arial,sans-serif" font-size="11.5" fill="#8b8b97">Linked or independent margin guides.</text>
  </g>

  <!-- Grid-and-Go — RIGHT -->
  <circle cx="660" cy="219" r="2.5" fill="#3b82f6"/>
  <line x1="660" y1="219" x2="690" y2="219" stroke="#3b82f6" stroke-width="1" stroke-dasharray="3 2"/>
  <g transform="translate(698,207)">
    <text font-family="Arial,sans-serif" font-size="14" fill="#ededf0" font-weight="600">Grid-and-Go</text>
    <text y="18" font-family="Arial,sans-serif" font-size="11.5" fill="#8b8b97">Rows, columns, gutters, frames, and shapes.</text>
  </g>

  <!-- Some Guides Like You — LEFT -->
  <circle cx="400" cy="257" r="2.5" fill="#3b82f6"/>
  <line x1="400" y1="257" x2="370" y2="257" stroke="#3b82f6" stroke-width="1" stroke-dasharray="3 2"/>
  <g transform="translate(30,247)">
    <text text-anchor="end" x="340" font-family="Arial,sans-serif" font-size="14" fill="#ededf0" font-weight="600">Some Guides Like You</text>
    <text text-anchor="end" x="340" y="18" font-family="Arial,sans-serif" font-size="11.5" fill="#8b8b97">Capture and reapply layouts across documents.</text>
  </g>

  <!-- Geek-Set-Go — RIGHT -->
  <circle cx="660" cy="295" r="2.5" fill="#3b82f6"/>
  <line x1="660" y1="295" x2="690" y2="295" stroke="#3b82f6" stroke-width="1" stroke-dasharray="3 2"/>
  <g transform="translate(698,283)">
    <text font-family="Arial,sans-serif" font-size="14" fill="#ededf0" font-weight="600">Geek-Set-Go</text>
    <text y="18" font-family="Arial,sans-serif" font-size="11.5" fill="#8b8b97">Unequal divisions with ratio, pixel, wildcards.</text>
  </g>

  <!-- Artboard Management — LEFT (AI-only) -->
  <circle cx="400" cy="333" r="2.5" fill="#3b82f6"/>
  <line x1="400" y1="333" x2="370" y2="333" stroke="#3b82f6" stroke-width="1" stroke-dasharray="3 2"/>
  <g transform="translate(30,323)">
    <text text-anchor="end" x="340" font-family="Arial,sans-serif" font-size="14" fill="#ededf0" font-weight="600">Artboard Management</text>
    <text text-anchor="end" x="340" y="18" font-family="Arial,sans-serif" font-size="11.5" fill="#8b8b97">Navigate and apply guides per artboard.</text>
    <rect x="185" y="26" width="155" height="18" rx="9" fill="#f59e0b" fill-opacity="0.15" stroke="#f59e0b" stroke-width="0.8"/>
    <text text-anchor="middle" x="262" y="39" font-family="Arial,sans-serif" font-size="10" fill="#f59e0b" font-weight="600">Adobe Illustrator Only</text>
  </g>
</svg>
