<?xml version="1.0" encoding="UTF-8"?>
<svg viewBox="0 0 1060 570" xmlns="http://www.w3.org/2000/svg">
  <rect width="1060" height="570" fill="#09090b" rx="12"/>

  <!-- ===== Plugin Panel (center) ===== -->
  <g transform="translate(400,20)">
    <rect width="260" height="530" fill="#535353" rx="4" stroke="#2a2a2a" stroke-width="1"/>

    <!-- === Quick Actions (no title bar, 4 rows x 8 cols) === -->
    <g transform="translate(8,8)">
      <rect width="244" height="130" fill="#3d3d3d" rx="3" stroke="#2a2a2a" stroke-width="0.5"/>

      <!-- Row 1: Merge Docs, Swap, Split, Merge, Tiling, Layer Info, Copy2Another, Special Chars -->
      <g transform="translate(4,4)" stroke="#b8b8b8" stroke-width="1.2" fill="none">
        <g fill="#464646" stroke="#2a2a2a" stroke-width="0.5">
          <rect x="0" y="0" width="28" height="28" rx="2"/>
          <rect x="30" y="0" width="28" height="28" rx="2"/>
          <rect x="60" y="0" width="28" height="28" rx="2"/>
          <rect x="90" y="0" width="28" height="28" rx="2"/>
          <rect x="120" y="0" width="28" height="28" rx="2"/>
          <rect x="150" y="0" width="28" height="28" rx="2"/>
          <rect x="180" y="0" width="28" height="28" rx="2"/>
          <rect x="210" y="0" width="26" height="28" rx="2"/>
        </g>
        <!-- Merge Docs: stacked layers -->
        <g transform="translate(4,3) scale(0.92)"><path d="M1,17 L12,23 L23,17" stroke-width="2" stroke-linejoin="miter"/><path d="M1,12 L12,18 L23,12" stroke-width="2" stroke-linejoin="miter"/><path d="M1,4 L12,1 L23,4 L12,10 Z" stroke-width="2" stroke-linejoin="miter"/></g>
        <!-- Swap: circle + red line + filled/hollow dots -->
        <g transform="translate(34,3) scale(0.92)"><circle cx="12" cy="12" r="10" stroke-width="2"/><line x1="2" y1="12" x2="22" y2="12" stroke="#ff4444" stroke-width="2"/><circle cx="12" cy="7" r="2" fill="#b8b8b8"/><circle cx="12" cy="17" r="2" fill="none" stroke-width="2"/></g>
        <!-- Split Channels: yellow block (static state) -->
        <g transform="translate(64,3) scale(0.92)"><rect x="7" y="7" width="10" height="10" fill="#f0c040" stroke="none"/></g>
        <!-- Merge Layers: green + red side by side -->
        <g transform="translate(94,3) scale(0.92)"><rect x="2" y="7" width="9" height="10" fill="#4CAF50" stroke="none"/><rect x="13" y="7" width="9" height="10" fill="#ff4444" stroke="none"/></g>
        <!-- Tiling: 3x3 grid, top-left red -->
        <g transform="translate(124,3) scale(0.92)"><rect x="2" y="2" width="5.5" height="5.5" fill="#ff4444" stroke="none"/><rect x="9.25" y="2" width="5.5" height="5.5" fill="#ffffff" stroke="none"/><rect x="16.5" y="2" width="5.5" height="5.5" fill="#ffffff" stroke="none"/><rect x="2" y="9.25" width="5.5" height="5.5" fill="#ffffff" stroke="none"/><rect x="9.25" y="9.25" width="5.5" height="5.5" fill="#ffffff" stroke="none"/><rect x="16.5" y="9.25" width="5.5" height="5.5" fill="#ffffff" stroke="none"/><rect x="2" y="16.5" width="5.5" height="5.5" fill="#ffffff" stroke="none"/><rect x="9.25" y="16.5" width="5.5" height="5.5" fill="#ffffff" stroke="none"/><rect x="16.5" y="16.5" width="5.5" height="5.5" fill="#ffffff" stroke="none"/></g>
        <!-- Layer Info: circle r=11 + red i -->
        <g transform="translate(154,3) scale(0.92)"><circle cx="12" cy="12" r="11" stroke-width="2"/><circle cx="12" cy="7" r="1.5" fill="#ff4444" stroke="none"/><line x1="12" y1="11" x2="12" y2="18" stroke-width="2.5" stroke-linecap="round" stroke="#ff4444"/></g>
        <!-- Copy to Another Doc: src rect + red dest rect + arrow -->
        <g transform="translate(184,3) scale(0.92)"><rect x="2" y="3" width="9" height="12" stroke-width="1.5" rx="1"/><rect x="13" y="9" width="9" height="12" stroke-width="1.5" fill="#ff4444" rx="1"/><line x1="13" y1="9" x2="19" y2="9" stroke-width="2"/><polyline points="16,6 19,9 16,12" stroke-width="2"/></g>
        <!-- Special Characters: Ω -->
        <g transform="translate(213,3) scale(0.88)"><text x="12" y="19" text-anchor="middle" font-size="22" fill="#b8b8b8" stroke="none" font-family="Arial,sans-serif">Ω</text></g>
      </g>

      <!-- Row 2: Batch Merge&Save, Copy2All, Batch Split, Batch Merge, Grid Arranger, Smart Crop, Pseudo Color, Measure Gap -->
      <g transform="translate(4,34)" stroke="#b8b8b8" stroke-width="1" fill="none">
        <g fill="#464646" stroke="#2a2a2a" stroke-width="0.5">
          <rect x="0" y="0" width="28" height="28" rx="2"/>
          <rect x="30" y="0" width="28" height="28" rx="2"/>
          <rect x="60" y="0" width="28" height="28" rx="2"/>
          <rect x="90" y="0" width="28" height="28" rx="2"/>
          <rect x="120" y="0" width="28" height="28" rx="2"/>
          <rect x="150" y="0" width="28" height="28" rx="2"/>
          <rect x="180" y="0" width="28" height="28" rx="2"/>
          <rect x="210" y="0" width="26" height="28" rx="2"/>
        </g>
        <!-- Batch Merge & Save: folder + merge icon -->
        <g transform="translate(4,3) scale(0.92)"><path d="M1,6 L1,21 C1,21.5 1.5,22 2,22 L22,22 C22.5,22 23,21.5 23,21 L23,8 C23,7.5 22.5,7 22,7 L11,7 L9,5 L2,5 C1.5,5 1,5.5 1,6 Z" stroke-width="1.5"/><path d="M5,18 L12,21 L19,18" stroke="#ff4444" stroke-width="1.5" stroke-linejoin="miter"/><path d="M5,15 L12,18 L19,15" stroke="#ff4444" stroke-width="1.5" stroke-linejoin="miter"/><path d="M5,11 L12,9 L19,11 L12,14 Z" stroke="#ff4444" stroke-width="1.5" stroke-linejoin="miter"/></g>
        <!-- Copy to All: 3x3 grid with red center -->
        <g transform="translate(34,3) scale(0.92)"><rect x="2" y="2" width="5.5" height="5.5" fill="#ffffff" stroke="none"/><rect x="9.25" y="2" width="5.5" height="5.5" fill="#ffffff" stroke="none"/><rect x="16.5" y="2" width="5.5" height="5.5" fill="#ffffff" stroke="none"/><rect x="2" y="9.25" width="5.5" height="5.5" fill="#ffffff" stroke="none"/><rect x="9.25" y="9.25" width="5.5" height="5.5" fill="#ff4444" stroke="none"/><rect x="16.5" y="9.25" width="5.5" height="5.5" fill="#ffffff" stroke="none"/><rect x="2" y="16.5" width="5.5" height="5.5" fill="#ffffff" stroke="none"/><rect x="9.25" y="16.5" width="5.5" height="5.5" fill="#ffffff" stroke="none"/><rect x="16.5" y="16.5" width="5.5" height="5.5" fill="#ffffff" stroke="none"/></g>
        <!-- Batch Split: folder + yellow block -->
        <g transform="translate(64,3) scale(0.92)"><path d="M1,6 L1,21 C1,21.5 1.5,22 2,22 L22,22 C22.5,22 23,21.5 23,21 L23,8 C23,7.5 22.5,7 22,7 L11,7 L9,5 L2,5 C1.5,5 1,5.5 1,6 Z" stroke-width="1.5"/><rect x="8" y="11" width="8" height="8" fill="#f0c040" stroke="none"/></g>
        <!-- Batch Merge Layers: 2x2 green+red -->
        <g transform="translate(94,3) scale(0.92)"><rect x="2" y="2" width="9" height="9" fill="#4CAF50" stroke="none"/><rect x="13" y="2" width="9" height="9" fill="#ff4444" stroke="none"/><rect x="2" y="13" width="9" height="9" fill="#4CAF50" stroke="none"/><rect x="13" y="13" width="9" height="9" fill="#ff4444" stroke="none"/></g>
        <!-- Grid Arranger: scattered squares -->
        <g transform="translate(124,3) scale(0.92)"><rect x="1" y="1" width="5.5" height="5.5" fill="#ffffff" stroke="none"/><rect x="11" y="0" width="5.5" height="5.5" fill="#ffffff" stroke="none"/><rect x="17" y="3" width="5.5" height="5.5" fill="#ffffff" stroke="none"/><rect x="0" y="11" width="5.5" height="5.5" fill="#ffffff" stroke="none"/><rect x="8" y="8" width="5.5" height="5.5" fill="#ffffff" stroke="none"/><rect x="18" y="10" width="5.5" height="5.5" fill="#ffffff" stroke="none"/><rect x="3" y="18" width="5.5" height="5.5" fill="#ffffff" stroke="none"/><rect x="10" y="15" width="5.5" height="5.5" fill="#ffffff" stroke="none"/><rect x="15" y="17" width="5.5" height="5.5" fill="#ffffff" stroke="none"/></g>
        <!-- Smart Crop: dashed frame + scissors -->
        <g transform="translate(154,3) scale(0.92)"><rect x="1" y="1" width="22" height="22" stroke="#ff4444" stroke-width="2" stroke-dasharray="5,6" fill="none"/><polygon points="10,14 19,4 14,11" fill="#b8b8b8" stroke="none"/><polygon points="14,14 5,4 10,11" fill="#b8b8b8" stroke="none"/><circle cx="6" cy="20" r="2.5" stroke-width="1.5"/><line x1="7.5" y1="18" x2="11" y2="13" stroke-width="2" stroke-linecap="round"/><circle cx="18" cy="20" r="2.5" stroke-width="1.5"/><line x1="16.5" y1="18" x2="13" y2="13" stroke-width="2" stroke-linecap="round"/><circle cx="12" cy="12" r="1.5" fill="#b8b8b8" stroke="none"/></g>
        <!-- Pseudo Color: color palette + red border -->
        <g transform="translate(184,3) scale(0.92)"><rect x="1" y="1" width="5.5" height="22" fill="#ff4444" stroke="none"/><rect x="6.5" y="1" width="5.5" height="22" fill="#ffaa00" stroke="none"/><rect x="12" y="1" width="5.5" height="22" fill="#44bb44" stroke="none"/><rect x="17.5" y="1" width="5.5" height="22" fill="#4488ff" stroke="none"/><rect x="1" y="1" width="22" height="22" fill="none" stroke="#ff0000" stroke-width="2"/></g>
        <!-- Measure Gap: two rects + double arrow -->
        <g transform="translate(213,3) scale(0.88)"><rect x="2" y="4" width="6" height="16" fill="#ffffff" stroke="none"/><rect x="16" y="4" width="6" height="16" fill="#ffffff" stroke="none"/><path d="M10,12 L14,12" stroke="#ff4444" stroke-width="1.5" stroke-linecap="round"/><path d="M11,10 L9,12 L11,14" stroke="#ff4444" stroke-width="1.5" stroke-linecap="round" stroke-linejoin="round" fill="none"/><path d="M13,10 L15,12 L13,14" stroke="#ff4444" stroke-width="1.5" stroke-linecap="round" stroke-linejoin="round" fill="none"/></g>
      </g>

      <!-- Row 3: Line Profile, Batch BC, Z-Projection, Stamp, Realign, Collapse Groups, Delete Empty, Delete Hidden -->
      <g transform="translate(4,64)" stroke="#b8b8b8" stroke-width="1" fill="none">
        <g fill="#464646" stroke="#2a2a2a" stroke-width="0.5">
          <rect x="0" y="0" width="28" height="28" rx="2"/>
          <rect x="30" y="0" width="28" height="28" rx="2"/>
          <rect x="60" y="0" width="28" height="28" rx="2"/>
          <rect x="90" y="0" width="28" height="28" rx="2"/>
          <rect x="120" y="0" width="28" height="28" rx="2"/>
          <rect x="150" y="0" width="28" height="28" rx="2"/>
          <rect x="180" y="0" width="28" height="28" rx="2"/>
          <rect x="210" y="0" width="26" height="28" rx="2"/>
        </g>
        <!-- Line Profile: green double-peak + red bell curve -->
        <g transform="translate(4,3) scale(0.92)"><path d="M1,22 C3,22 3.5,2 6,2 C7.5,2 8.5,13 12,13 C15.5,13 16.5,2 18,2 C20.5,2 21,22 23,22" stroke="#4CAF50" stroke-width="2" stroke-linecap="round" stroke-linejoin="round" fill="none"/><path d="M1,22 C4.5,22 8,2 12,2 C16,2 19.5,22 23,22" stroke="#ff4444" stroke-width="2" stroke-linecap="round" stroke-linejoin="round" fill="none"/></g>
        <!-- Batch BC: sun icon with 8 rays -->
        <g transform="translate(34,3) scale(0.92)"><circle cx="12" cy="12" r="4.5" stroke-width="2"/><line x1="12" y1="1.5" x2="12" y2="4.5" stroke-width="2" stroke-linecap="round"/><line x1="12" y1="19.5" x2="12" y2="22.5" stroke-width="2" stroke-linecap="round"/><line x1="1.5" y1="12" x2="4.5" y2="12" stroke-width="2" stroke-linecap="round"/><line x1="19.5" y1="12" x2="22.5" y2="12" stroke-width="2" stroke-linecap="round"/><line x1="4.6" y1="4.6" x2="6.7" y2="6.7" stroke-width="2" stroke-linecap="round"/><line x1="17.3" y1="17.3" x2="19.4" y2="19.4" stroke-width="2" stroke-linecap="round"/><line x1="4.6" y1="19.4" x2="6.7" y2="17.3" stroke-width="2" stroke-linecap="round"/><line x1="17.3" y1="6.7" x2="19.4" y2="4.6" stroke-width="2" stroke-linecap="round"/></g>
        <!-- Z-Projection: stacked rects + down arrow -->
        <g transform="translate(64,3) scale(0.92)"><rect x="2" y="4" width="14" height="10" rx="1" stroke-width="1.5" opacity="0.4"/><rect x="4" y="2" width="14" height="10" rx="1" stroke-width="1.5" opacity="0.6"/><rect x="6" y="0" width="14" height="10" rx="1" stroke-width="1.5" opacity="0.9"/><line x1="12" y1="13" x2="12" y2="22" stroke-width="2" stroke-linecap="round"/><polyline points="8,18.5 12,22.5 16,18.5" stroke-width="2" stroke-linecap="round" stroke-linejoin="round"/></g>
        <!-- Stamp: 2x2 grid + all 4 red dots visible (complete state) -->
        <g transform="translate(94,3) scale(0.92)"><rect x="1" y="1" width="10" height="10" fill="#ffffff" stroke="none"/><rect x="13" y="1" width="10" height="10" fill="#ffffff" stroke="none"/><rect x="1" y="13" width="10" height="10" fill="#ffffff" stroke="none"/><rect x="13" y="13" width="10" height="10" fill="#ffffff" stroke="none"/><rect x="3.5" y="3.5" width="5" height="5" fill="#ff4444" stroke="none"/><rect x="15.5" y="3.5" width="5" height="5" fill="#ff4444" stroke="none"/><rect x="3.5" y="15.5" width="5" height="5" fill="#ff4444" stroke="none"/><rect x="15.5" y="15.5" width="5" height="5" fill="#ff4444" stroke="none"/></g>
        <!-- Realign Text Grid: 5 white aligned + 4 red scattered -->
        <g transform="translate(124,3) scale(0.92)"><rect x="2" y="2" width="5.5" height="5.5" fill="#ffffff" stroke="none"/><rect x="9.25" y="2" width="5.5" height="5.5" fill="#ffffff" stroke="none"/><rect x="16.5" y="2" width="5.5" height="5.5" fill="#ffffff" stroke="none"/><rect x="2" y="9.25" width="5.5" height="5.5" fill="#ffffff" stroke="none"/><rect x="9.25" y="9.25" width="5.5" height="5.5" fill="#ffffff" stroke="none"/><rect x="18" y="8" width="5.5" height="5.5" fill="#ff4444" stroke="none"/><rect x="0" y="18" width="5.5" height="5.5" fill="#ff4444" stroke="none"/><rect x="8" y="18" width="5.5" height="5.5" fill="#ff4444" stroke="none"/><rect x="18" y="17" width="5.5" height="5.5" fill="#ff4444" stroke="none"/></g>
        <!-- Collapse All Groups: 3 bullet bars -->
        <g transform="translate(154,3) scale(0.92)"><circle cx="4" cy="4.5" r="2" fill="#b8b8b8" stroke="none"/><rect x="9" y="2.5" width="13" height="4" rx="2" fill="#b8b8b8" stroke="none"/><circle cx="4" cy="12" r="2" fill="#b8b8b8" stroke="none"/><rect x="9" y="10" width="13" height="4" rx="2" fill="#b8b8b8" stroke="none"/><circle cx="4" cy="19.5" r="2" fill="#b8b8b8" stroke="none"/><rect x="9" y="17.5" width="13" height="4" rx="2" fill="#b8b8b8" stroke="none"/></g>
        <!-- Delete Empty Layers: trash + red dashed rect -->
        <g transform="translate(184,3) scale(0.92)"><path d="M8,3 L8,1.5 C8,1 9,1 10,1 L14,1 C15,1 16,1 16,1.5 L16,3" stroke-width="1.5"/><rect x="4" y="3" width="16" height="2.5" rx="1" stroke-width="1.5"/><rect x="5" y="5.5" width="14" height="17" rx="1" stroke-width="1.5"/><rect x="8" y="10.5" width="8" height="7" rx="1" fill="none" stroke="#ff4444" stroke-width="1.5"/></g>
        <!-- Delete Hidden Layers: trash + red closed eye -->
        <g transform="translate(213,3) scale(0.88)"><path d="M8,3 L8,1.5 C8,1 9,1 10,1 L14,1 C15,1 16,1 16,1.5 L16,3" stroke-width="1.5"/><rect x="4" y="3" width="16" height="2.5" rx="1" stroke-width="1.5"/><rect x="5" y="5.5" width="14" height="17" rx="1" stroke-width="1.5"/><ellipse cx="12" cy="14" rx="5" ry="3" stroke-width="1.5" fill="none" stroke="#ff4444"/><line x1="7" y1="11" x2="17" y2="17" stroke-width="1.5" stroke="#ff4444" stroke-linecap="round"/></g>
      </g>

      <!-- Row 4: Border, Midlines, Top, Bottom, Left, Right, Clear Guides, Collapse All -->
      <g transform="translate(4,94)" stroke="#b8b8b8" stroke-width="1" fill="none">
        <g fill="#464646" stroke="#2a2a2a" stroke-width="0.5">
          <rect x="0" y="0" width="28" height="28" rx="2"/>
          <rect x="30" y="0" width="28" height="28" rx="2"/>
          <rect x="60" y="0" width="28" height="28" rx="2"/>
          <rect x="90" y="0" width="28" height="28" rx="2"/>
          <rect x="120" y="0" width="28" height="28" rx="2"/>
          <rect x="150" y="0" width="28" height="28" rx="2"/>
          <rect x="180" y="0" width="28" height="28" rx="2" fill="#5a3a3a" stroke="#4a2a2a"/>
          <rect x="210" y="0" width="26" height="28" rx="2"/>
        </g>
        <!-- Border: rectangle -->
        <g transform="translate(4,3) scale(0.92)"><rect x="1" y="1" width="22" height="22" stroke-width="2"/></g>
        <!-- Midlines: cross -->
        <g transform="translate(34,3) scale(0.92)"><line x1="12" y1="1" x2="12" y2="23" stroke-width="2"/><line x1="1" y1="12" x2="23" y2="12" stroke-width="2"/></g>
        <!-- Top: line at top + arrow down -->
        <g transform="translate(64,3) scale(0.92)"><line x1="1" y1="1" x2="23" y2="1" stroke-width="2"/><polyline points="12,1 12,17"/><polyline points="8,13 12,17 16,13"/></g>
        <!-- Bottom: line at bottom + arrow up -->
        <g transform="translate(94,3) scale(0.92)"><line x1="1" y1="23" x2="23" y2="23" stroke-width="2"/><polyline points="12,23 12,7"/><polyline points="8,11 12,7 16,11"/></g>
        <!-- Left: line at left + arrow right -->
        <g transform="translate(124,3) scale(0.92)"><line x1="1" y1="1" x2="1" y2="23" stroke-width="2"/><polyline points="1,12 17,12"/><polyline points="13,8 17,12 13,16"/></g>
        <!-- Right: line at right + arrow left -->
        <g transform="translate(154,3) scale(0.92)"><line x1="23" y1="1" x2="23" y2="23" stroke-width="2"/><polyline points="23,12 7,12"/><polyline points="11,8 7,12 11,16"/></g>
        <!-- Clear Guides: trash + grid inside (full state, red bg already set above) -->
        <g transform="translate(184,3) scale(0.92)"><path d="M8,3 L8,1.5 C8,1 9,1 10,1 L14,1 C15,1 16,1 16,1.5 L16,3" stroke-width="1.5"/><rect x="4" y="3" width="16" height="2.5" rx="1" stroke-width="1.5"/><rect x="5" y="5.5" width="14" height="17" rx="1" stroke-width="1.5"/><line x1="9" y1="9" x2="9" y2="19" stroke-width="1"/><line x1="12" y1="9" x2="12" y2="19" stroke-width="1"/><line x1="15" y1="9" x2="15" y2="19" stroke-width="1"/><line x1="7" y1="11.5" x2="17" y2="11.5" stroke-width="1"/><line x1="7" y1="14" x2="17" y2="14" stroke-width="1"/><line x1="7" y1="16.5" x2="17" y2="16.5" stroke-width="1"/></g>
        <!-- Collapse All: triple chevron up -->
        <g transform="translate(213,3) scale(0.88)"><polyline points="6,12 12,6 18,12" stroke-width="2"/><polyline points="6,17 12,11 18,17" stroke-width="2"/><polyline points="6,22 12,16 18,22" stroke-width="2"/></g>
      </g>
    </g>

    <!-- === Phrase Bank (collapsed) === -->
    <g transform="translate(8,146)">
      <rect width="244" height="30" fill="#3d3d3d" rx="3" stroke="#2a2a2a" stroke-width="0.5"/>
      <text x="10" y="20" font-family="Arial,sans-serif" font-size="10.5" fill="#e8e8e8" font-weight="500">Phrase Bank</text>
      <polyline points="230,11 234,16 238,11" fill="none" stroke="#b8b8b8" stroke-width="1.5" transform="rotate(-90,234,14)"/>
    </g>

    <!-- === Resize Layers (collapsed) === -->
    <g transform="translate(8,184)">
      <rect width="244" height="30" fill="#3d3d3d" rx="3" stroke="#2a2a2a" stroke-width="0.5"/>
      <text x="10" y="20" font-family="Arial,sans-serif" font-size="10.5" fill="#e8e8e8" font-weight="500">Resize Layers</text>
      <polyline points="230,11 234,16 238,11" fill="none" stroke="#b8b8b8" stroke-width="1.5" transform="rotate(-90,234,14)"/>
    </g>

    <!-- === Add Text (collapsed) === -->
    <g transform="translate(8,222)">
      <rect width="244" height="30" fill="#3d3d3d" rx="3" stroke="#2a2a2a" stroke-width="0.5"/>
      <text x="10" y="20" font-family="Arial,sans-serif" font-size="10.5" fill="#e8e8e8" font-weight="500">Add Text</text>
      <polyline points="230,11 234,16 238,11" fill="none" stroke="#b8b8b8" stroke-width="1.5" transform="rotate(-90,234,14)"/>
    </g>

    <!-- === Adv Line Marker (collapsed) === -->
    <g transform="translate(8,260)">
      <rect width="244" height="30" fill="#3d3d3d" rx="3" stroke="#2a2a2a" stroke-width="0.5"/>
      <text x="10" y="20" font-family="Arial,sans-serif" font-size="10.5" fill="#e8e8e8" font-weight="500">Adv Line Marker</text>
      <polyline points="230,11 234,16 238,11" fill="none" stroke="#b8b8b8" stroke-width="1.5" transform="rotate(-90,234,14)"/>
    </g>

    <!-- === Scale Bar (collapsed) === -->
    <g transform="translate(8,298)">
      <rect width="244" height="30" fill="#3d3d3d" rx="3" stroke="#2a2a2a" stroke-width="0.5"/>
      <text x="10" y="20" font-family="Arial,sans-serif" font-size="10.5" fill="#e8e8e8" font-weight="500">Scale Bar</text>
      <polyline points="230,11 234,16 238,11" fill="none" stroke="#b8b8b8" stroke-width="1.5" transform="rotate(-90,234,14)"/>
    </g>

    <!-- === Inset (collapsed) === -->
    <g transform="translate(8,336)">
      <rect width="244" height="30" fill="#3d3d3d" rx="3" stroke="#2a2a2a" stroke-width="0.5"/>
      <text x="10" y="20" font-family="Arial,sans-serif" font-size="10.5" fill="#e8e8e8" font-weight="500">Inset</text>
      <polyline points="230,11 234,16 238,11" fill="none" stroke="#b8b8b8" stroke-width="1.5" transform="rotate(-90,234,14)"/>
    </g>

    <!-- === Scale Bar (Inset) (collapsed) === -->
    <g transform="translate(8,374)">
      <rect width="244" height="30" fill="#3d3d3d" rx="3" stroke="#2a2a2a" stroke-width="0.5"/>
      <text x="10" y="20" font-family="Arial,sans-serif" font-size="10.5" fill="#e8e8e8" font-weight="500">Scale Bar (Inset)</text>
      <polyline points="230,11 234,16 238,11" fill="none" stroke="#b8b8b8" stroke-width="1.5" transform="rotate(-90,234,14)"/>
    </g>

    <!-- === Add Label (collapsed) === -->
    <g transform="translate(8,412)">
      <rect width="244" height="30" fill="#3d3d3d" rx="3" stroke="#2a2a2a" stroke-width="0.5"/>
      <text x="10" y="20" font-family="Arial,sans-serif" font-size="10.5" fill="#e8e8e8" font-weight="500">Add Label</text>
      <polyline points="230,11 234,16 238,11" fill="none" stroke="#b8b8b8" stroke-width="1.5" transform="rotate(-90,234,14)"/>
    </g>

    <!-- === Edit Text (collapsed) === -->
    <g transform="translate(8,450)">
      <rect width="244" height="30" fill="#3d3d3d" rx="3" stroke="#2a2a2a" stroke-width="0.5"/>
      <text x="10" y="20" font-family="Arial,sans-serif" font-size="10.5" fill="#e8e8e8" font-weight="500">Edit Text</text>
      <polyline points="230,11 234,16 238,11" fill="none" stroke="#b8b8b8" stroke-width="1.5" transform="rotate(-90,234,14)"/>
    </g>

    <!-- === Add Line (collapsed) === -->
    <g transform="translate(8,488)">
      <rect width="244" height="30" fill="#3d3d3d" rx="3" stroke="#2a2a2a" stroke-width="0.5"/>
      <text x="10" y="20" font-family="Arial,sans-serif" font-size="10.5" fill="#e8e8e8" font-weight="500">Add Line</text>
      <polyline points="230,11 234,16 238,11" fill="none" stroke="#b8b8b8" stroke-width="1.5" transform="rotate(-90,234,14)"/>
    </g>
  </g>

  <!-- ===== Annotations (alternating left / right) ===== -->

  <!-- Row 1: Quick Actions — LEFT (Row 1) -->
  <circle cx="400" cy="38" r="2.5" fill="#3b82f6"/>
  <line x1="400" y1="38" x2="370" y2="38" stroke="#3b82f6" stroke-width="1" stroke-dasharray="3 2"/>
  <g transform="translate(30,28)">
    <text text-anchor="end" x="340" font-family="Arial,sans-serif" font-size="14" fill="#ededf0" font-weight="600">Channel Split &amp; Merge</text>
    <text text-anchor="end" x="340" y="18" font-family="Arial,sans-serif" font-size="11.5" fill="#8b8b97">Split/merge channels, merge docs, swap, tile.</text>
  </g>

  <!-- Row 2: Quick Actions — RIGHT (Row 2) -->
  <circle cx="660" cy="68" r="2.5" fill="#3b82f6"/>
  <line x1="660" y1="68" x2="690" y2="68" stroke="#3b82f6" stroke-width="1" stroke-dasharray="3 2"/>
  <g transform="translate(698,56)">
    <text font-family="Arial,sans-serif" font-size="14" fill="#ededf0" font-weight="600">Pseudo Color &amp; Batch Processing</text>
    <text y="18" font-family="Arial,sans-serif" font-size="11.5" fill="#8b8b97">Pseudo color, smart crop, grid arrange, batch I/O.</text>
  </g>

  <!-- Row 3: Quick Actions — LEFT (Row 3) -->
  <circle cx="400" cy="98" r="2.5" fill="#3b82f6"/>
  <line x1="400" y1="98" x2="370" y2="98" stroke="#3b82f6" stroke-width="1" stroke-dasharray="3 2"/>
  <g transform="translate(30,88)">
    <text text-anchor="end" x="340" font-family="Arial,sans-serif" font-size="14" fill="#ededf0" font-weight="600">Measure &amp; Layer Tools</text>
    <text text-anchor="end" x="340" y="18" font-family="Arial,sans-serif" font-size="11.5" fill="#8b8b97">Line profile, Z-projection, stamp, layer cleanup.</text>
  </g>

  <!-- Row 4: Quick Actions — RIGHT (Row 4) -->
  <circle cx="660" cy="128" r="2.5" fill="#3b82f6"/>
  <line x1="660" y1="128" x2="690" y2="128" stroke="#3b82f6" stroke-width="1" stroke-dasharray="3 2"/>
  <g transform="translate(698,116)">
    <text font-family="Arial,sans-serif" font-size="14" fill="#ededf0" font-weight="600">Guide System</text>
    <text y="18" font-family="Arial,sans-serif" font-size="11.5" fill="#8b8b97">Border, midlines, edge guides, clear guides.</text>
  </g>

  <!-- Phrase Bank — LEFT -->
  <circle cx="400" cy="161" r="2.5" fill="#3b82f6"/>
  <line x1="400" y1="161" x2="370" y2="161" stroke="#3b82f6" stroke-width="1" stroke-dasharray="3 2"/>
  <g transform="translate(30,151)">
    <text text-anchor="end" x="340" font-family="Arial,sans-serif" font-size="14" fill="#ededf0" font-weight="600">Phrase Bank</text>
    <text text-anchor="end" x="340" y="18" font-family="Arial,sans-serif" font-size="11.5" fill="#8b8b97">Quick-insert saved text snippets to layers.</text>
  </g>

  <!-- Resize Layers — RIGHT -->
  <circle cx="660" cy="199" r="2.5" fill="#3b82f6"/>
  <line x1="660" y1="199" x2="690" y2="199" stroke="#3b82f6" stroke-width="1" stroke-dasharray="3 2"/>
  <g transform="translate(698,187)">
    <text font-family="Arial,sans-serif" font-size="14" fill="#ededf0" font-weight="600">Resize Layers</text>
    <text y="18" font-family="Arial,sans-serif" font-size="11.5" fill="#8b8b97">Resize by width, height, percentage, or DPI.</text>
  </g>

  <!-- Add Text — LEFT -->
  <circle cx="400" cy="237" r="2.5" fill="#3b82f6"/>
  <line x1="400" y1="237" x2="370" y2="237" stroke="#3b82f6" stroke-width="1" stroke-dasharray="3 2"/>
  <g transform="translate(30,227)">
    <text text-anchor="end" x="340" font-family="Arial,sans-serif" font-size="14" fill="#ededf0" font-weight="600">Add Text</text>
    <text text-anchor="end" x="340" y="18" font-family="Arial,sans-serif" font-size="11.5" fill="#8b8b97">Add styled text with font, size, color control.</text>
  </g>

  <!-- Adv Line Marker — RIGHT -->
  <circle cx="660" cy="275" r="2.5" fill="#3b82f6"/>
  <line x1="660" y1="275" x2="690" y2="275" stroke="#3b82f6" stroke-width="1" stroke-dasharray="3 2"/>
  <g transform="translate(698,263)">
    <text font-family="Arial,sans-serif" font-size="14" fill="#ededf0" font-weight="600">Adv Line Marker</text>
    <text y="18" font-family="Arial,sans-serif" font-size="11.5" fill="#8b8b97">Draw lines, arrows, brackets with grid presets.</text>
  </g>

  <!-- Scale Bar — LEFT -->
  <circle cx="400" cy="313" r="2.5" fill="#3b82f6"/>
  <line x1="400" y1="313" x2="370" y2="313" stroke="#3b82f6" stroke-width="1" stroke-dasharray="3 2"/>
  <g transform="translate(30,303)">
    <text text-anchor="end" x="340" font-family="Arial,sans-serif" font-size="14" fill="#ededf0" font-weight="600">Scale Bar</text>
    <text text-anchor="end" x="340" y="18" font-family="Arial,sans-serif" font-size="11.5" fill="#8b8b97">Add calibrated scale bars with labels and units.</text>
  </g>

  <!-- Inset — RIGHT -->
  <circle cx="660" cy="351" r="2.5" fill="#3b82f6"/>
  <line x1="660" y1="351" x2="690" y2="351" stroke="#3b82f6" stroke-width="1" stroke-dasharray="3 2"/>
  <g transform="translate(698,339)">
    <text font-family="Arial,sans-serif" font-size="14" fill="#ededf0" font-weight="600">Inset</text>
    <text y="18" font-family="Arial,sans-serif" font-size="11.5" fill="#8b8b97">Create magnified inset panels from selections.</text>
  </g>

  <!-- Scale Bar (Inset) — LEFT -->
  <circle cx="400" cy="389" r="2.5" fill="#3b82f6"/>
  <line x1="400" y1="389" x2="370" y2="389" stroke="#3b82f6" stroke-width="1" stroke-dasharray="3 2"/>
  <g transform="translate(30,379)">
    <text text-anchor="end" x="340" font-family="Arial,sans-serif" font-size="14" fill="#ededf0" font-weight="600">Scale Bar (Inset)</text>
    <text text-anchor="end" x="340" y="18" font-family="Arial,sans-serif" font-size="11.5" fill="#8b8b97">Auto-scaled bars for inset magnification.</text>
  </g>

  <!-- Add Label — RIGHT -->
  <circle cx="660" cy="427" r="2.5" fill="#3b82f6"/>
  <line x1="660" y1="427" x2="690" y2="427" stroke="#3b82f6" stroke-width="1" stroke-dasharray="3 2"/>
  <g transform="translate(698,415)">
    <text font-family="Arial,sans-serif" font-size="14" fill="#ededf0" font-weight="600">Add Label</text>
    <text y="18" font-family="Arial,sans-serif" font-size="11.5" fill="#8b8b97">Auto-label panels A, B, C… with grid layout.</text>
  </g>

  <!-- Edit Text — LEFT -->
  <circle cx="400" cy="465" r="2.5" fill="#3b82f6"/>
  <line x1="400" y1="465" x2="370" y2="465" stroke="#3b82f6" stroke-width="1" stroke-dasharray="3 2"/>
  <g transform="translate(30,455)">
    <text text-anchor="end" x="340" font-family="Arial,sans-serif" font-size="14" fill="#ededf0" font-weight="600">Edit Text</text>
    <text text-anchor="end" x="340" y="18" font-family="Arial,sans-serif" font-size="11.5" fill="#8b8b97">Batch edit font, size, color of text layers.</text>
  </g>

  <!-- Add Line — RIGHT -->
  <circle cx="660" cy="503" r="2.5" fill="#3b82f6"/>
  <line x1="660" y1="503" x2="690" y2="503" stroke="#3b82f6" stroke-width="1" stroke-dasharray="3 2"/>
  <g transform="translate(698,491)">
    <text font-family="Arial,sans-serif" font-size="14" fill="#ededf0" font-weight="600">Add Line</text>
    <text y="18" font-family="Arial,sans-serif" font-size="11.5" fill="#8b8b97">Draw lines and arrows with custom styling.</text>
  </g>
</svg>
