<?xml version="1.0" encoding="UTF-8"?>
<svg id="Layer_1" xmlns="http://www.w3.org/2000/svg" version="1.1" viewBox="0 0 1060 570">
  <!-- Generator: Adobe Illustrator 30.0.0, SVG Export Plug-In . SVG Version: 2.1.1 Build 123)  -->
  <defs>
    <style>
      .st0 {
        stroke: #3b82f6;
        stroke-dasharray: 3 2;
      }

      .st0, .st1, .st2, .st3, .st4, .st5, .st6, .st7, .st8, .st9, .st10, .st11, .st12, .st13, .st14, .st15, .st16, .st17, .st18, .st19, .st20, .st21 {
        fill: none;
      }

      .st1 {
        stroke-width: 1.5px;
      }

      .st1, .st2, .st3, .st4, .st7, .st10, .st22, .st11, .st13, .st17, .st23, .st18, .st19 {
        stroke: #b8b8b8;
      }

      .st24 {
        fill: #09090b;
      }

      .st2 {
        stroke-width: 1.76px;
      }

      .st2, .st5, .st10, .st15 {
        stroke-miterlimit: 3.52;
      }

      .st3 {
        opacity: .4;
      }

      .st3, .st4, .st6, .st7, .st8, .st22, .st12, .st13, .st16, .st17, .st23, .st18, .st19, .st20 {
        stroke-miterlimit: 3.68;
      }

      .st3, .st4, .st22, .st13, .st17, .st20 {
        stroke-width: 1.38px;
      }

      .st3, .st25, .st26, .st13, .st27, .st17, .st28 {
        isolation: isolate;
      }

      .st29 {
        fill: #00c8ff;
        fill-opacity: .15;
        stroke: #00c8ff;
      }

      .st30, .st27, .st23 {
        fill: #b8b8b8;
      }

      .st5, .st6, .st8, .st9, .st14, .st15, .st16, .st20 {
        stroke: #f44;
      }

      .st5, .st9, .st11, .st14, .st16, .st19, .st21 {
        stroke-linecap: round;
      }

      .st5, .st10, .st14, .st15 {
        stroke-width: 1.32px;
      }

      .st31, .st32 {
        fill: #fff;
      }

      .st33 {
        fill: #f0c040;
      }

      .st6, .st8, .st9, .st11, .st12, .st18, .st19, .st21 {
        stroke-width: 1.84px;
      }

      .st7 {
        stroke-width: .92px;
      }

      .st8 {
        stroke-dasharray: 4.6 5.52;
      }

      .st9, .st11, .st14, .st21 {
        stroke-linejoin: round;
      }

      .st25 {
        fill: #ededf0;
        font-family: Arial-BoldMT, Arial;
        font-size: 14px;
        font-weight: 700;
      }

      .st22, .st34 {
        fill: #f44;
      }

      .st35 {
        fill: #4caf50;
      }

      .st12 {
        stroke: red;
      }

      .st26 {
        fill: #8b8b97;
        font-size: 11.5px;
      }

      .st26, .st27, .st32, .st28 {
        font-family: ArialMT, Arial;
      }

      .st36 {
        fill: #3d3d3d;
      }

      .st36, .st37, .st38 {
        stroke-width: .5px;
      }

      .st36, .st37, .st39 {
        stroke: #2a2a2a;
      }

      .st40 {
        fill: #3b82f6;
      }

      .st41 {
        fill: #4b4;
      }

      .st13 {
        opacity: .9;
      }

      .st27 {
        font-size: 19.36px;
      }

      .st42 {
        fill: #fa0;
      }

      .st16 {
        stroke-width: 2.3px;
      }

      .st37 {
        fill: #464646;
      }

      .st38 {
        fill: #5a3a3a;
        stroke: #4a2a2a;
      }

      .st17 {
        opacity: .6;
      }

      .st23 {
        stroke-width: 1.1px;
      }

      .st32 {
        font-size: 12px;
      }

      .st28 {
        fill: #e8e8e8;
        font-size: 10.5px;
      }

      .st21 {
        stroke: #4caf50;
      }

      .st43 {
        fill: #48f;
      }

      .st39 {
        fill: #535353;
      }
    </style>
  </defs>
  <rect class="st24" y="0" width="1060" height="570" rx="12" ry="12"/>
  <g>
    <rect class="st39" x="400" y="20" width="260" height="530" rx="4" ry="4"/>
    <g>
      <rect class="st36" x="408" y="28" width="244" height="130" rx="3" ry="3"/>
      <g>
        <g>
          <rect class="st37" x="412" y="32" width="28" height="28" rx="2" ry="2"/>
          <rect class="st37" x="442" y="32" width="28" height="28" rx="2" ry="2"/>
          <rect class="st37" x="472" y="32" width="28" height="28" rx="2" ry="2"/>
          <rect class="st37" x="502" y="32" width="28" height="28" rx="2" ry="2"/>
          <rect class="st37" x="532" y="32" width="28" height="28" rx="2" ry="2"/>
          <rect class="st37" x="562" y="32" width="28" height="28" rx="2" ry="2"/>
          <rect class="st37" x="592" y="32" width="28" height="28" rx="2" ry="2"/>
          <rect class="st37" x="622" y="32" width="26" height="28" rx="2" ry="2"/>
        </g>
        <g>
          <path class="st18" d="M416.92,50.64l10.12,5.52,10.12-5.52"/>
          <path class="st18" d="M416.92,46.04l10.12,5.52,10.12-5.52"/>
          <path class="st18" d="M416.92,38.68l10.12-2.76,10.12,2.76-10.12,5.52-10.12-5.52Z"/>
        </g>
        <g>
          <circle class="st18" cx="457.04" cy="46.04" r="9.2"/>
          <line class="st6" x1="447.84" y1="46.04" x2="466.24" y2="46.04"/>
          <circle class="st23" cx="457.04" cy="41.44" r="1.84"/>
          <circle class="st18" cx="457.04" cy="50.64" r="1.84"/>
        </g>
        <rect class="st33" x="482.44" y="41.44" width="9.2" height="9.2"/>
        <g>
          <rect class="st35" x="507.84" y="41.44" width="8.28" height="9.2"/>
          <rect class="st34" x="517.96" y="41.44" width="8.28" height="9.2"/>
        </g>
        <g>
          <rect class="st34" x="537.84" y="36.84" width="5.06" height="5.06"/>
          <rect class="st31" x="544.51" y="36.84" width="5.06" height="5.06"/>
          <rect class="st31" x="551.18" y="36.84" width="5.06" height="5.06"/>
          <rect class="st31" x="537.84" y="43.51" width="5.06" height="5.06"/>
          <rect class="st31" x="544.51" y="43.51" width="5.06" height="5.06"/>
          <rect class="st31" x="551.18" y="43.51" width="5.06" height="5.06"/>
          <rect class="st31" x="537.84" y="50.18" width="5.06" height="5.06"/>
          <rect class="st31" x="544.51" y="50.18" width="5.06" height="5.06"/>
          <rect class="st31" x="551.18" y="50.18" width="5.06" height="5.06"/>
        </g>
        <g>
          <circle class="st18" cx="577.04" cy="46.04" r="10.12"/>
          <circle class="st34" cx="577.04" cy="41.44" r="1.38"/>
          <line class="st16" x1="577.04" y1="45.12" x2="577.04" y2="51.56"/>
        </g>
        <g>
          <rect class="st4" x="597.84" y="37.76" width="8.28" height="11.04" rx=".92" ry=".92"/>
          <rect class="st22" x="607.96" y="43.28" width="8.28" height="11.04" rx=".92" ry=".92"/>
          <line class="st18" x1="607.96" y1="43.28" x2="613.48" y2="43.28"/>
          <polyline class="st18" points="610.72 40.52 613.48 43.28 610.72 46.04"/>
        </g>
        <text class="st27" transform="translate(628.32 51.72)"><tspan x="0" y="0">Ω</tspan></text>
      </g>
      <g>
        <g>
          <rect class="st37" x="412" y="62" width="28" height="28" rx="2" ry="2"/>
          <rect class="st37" x="442" y="62" width="28" height="28" rx="2" ry="2"/>
          <rect class="st37" x="472" y="62" width="28" height="28" rx="2" ry="2"/>
          <rect class="st37" x="502" y="62" width="28" height="28" rx="2" ry="2"/>
          <rect class="st37" x="532" y="62" width="28" height="28" rx="2" ry="2"/>
          <rect class="st37" x="562" y="62" width="28" height="28" rx="2" ry="2"/>
          <rect class="st37" x="592" y="62" width="28" height="28" rx="2" ry="2"/>
          <rect class="st37" x="622" y="62" width="26" height="28" rx="2" ry="2"/>
        </g>
        <g>
          <path class="st4" d="M416.92,70.52v13.8c0,.46.46.92.92.92h18.4c.46,0,.92-.46.92-.92v-11.96c0-.46-.46-.92-.92-.92h-10.12l-1.84-1.84h-6.44c-.46,0-.92.46-.92.92Z"/>
          <path class="st20" d="M420.6,81.56l6.44,2.76,6.44-2.76"/>
          <path class="st20" d="M420.6,78.8l6.44,2.76,6.44-2.76"/>
          <path class="st20" d="M420.6,75.12l6.44-1.84,6.44,1.84-6.44,2.76-6.44-2.76Z"/>
        </g>
        <g>
          <rect class="st31" x="447.84" y="66.84" width="5.06" height="5.06"/>
          <rect class="st31" x="454.51" y="66.84" width="5.06" height="5.06"/>
          <rect class="st31" x="461.18" y="66.84" width="5.06" height="5.06"/>
          <rect class="st31" x="447.84" y="73.51" width="5.06" height="5.06"/>
          <rect class="st34" x="454.51" y="73.51" width="5.06" height="5.06"/>
          <rect class="st31" x="461.18" y="73.51" width="5.06" height="5.06"/>
          <rect class="st31" x="447.84" y="80.18" width="5.06" height="5.06"/>
          <rect class="st31" x="454.51" y="80.18" width="5.06" height="5.06"/>
          <rect class="st31" x="461.18" y="80.18" width="5.06" height="5.06"/>
        </g>
        <g>
          <path class="st4" d="M476.92,70.52v13.8c0,.46.46.92.92.92h18.4c.46,0,.92-.46.92-.92v-11.96c0-.46-.46-.92-.92-.92h-10.12l-1.84-1.84h-6.44c-.46,0-.92.46-.92.92Z"/>
          <rect class="st33" x="483.36" y="75.12" width="7.36" height="7.36"/>
        </g>
        <g>
          <rect class="st35" x="507.84" y="66.84" width="8.28" height="8.28"/>
          <rect class="st34" x="517.96" y="66.84" width="8.28" height="8.28"/>
          <rect class="st35" x="507.84" y="76.96" width="8.28" height="8.28"/>
          <rect class="st34" x="517.96" y="76.96" width="8.28" height="8.28"/>
        </g>
        <g>
          <rect class="st31" x="536.92" y="65.92" width="5.06" height="5.06"/>
          <rect class="st31" x="546.12" y="65" width="5.06" height="5.06"/>
          <rect class="st31" x="551.64" y="67.76" width="5.06" height="5.06"/>
          <rect class="st31" x="536" y="75.12" width="5.06" height="5.06"/>
          <rect class="st31" x="543.36" y="72.36" width="5.06" height="5.06"/>
          <rect class="st31" x="552.56" y="74.2" width="5.06" height="5.06"/>
          <rect class="st31" x="538.76" y="81.56" width="5.06" height="5.06"/>
          <rect class="st31" x="545.2" y="78.8" width="5.06" height="5.06"/>
          <rect class="st31" x="549.8" y="80.64" width="5.06" height="5.06"/>
        </g>
        <g>
          <rect class="st8" x="566.92" y="65.92" width="20.24" height="20.24"/>
          <polygon class="st30" points="575.2 77.88 583.48 68.68 578.88 75.12 575.2 77.88"/>
          <polygon class="st30" points="578.88 77.88 570.6 68.68 575.2 75.12 578.88 77.88"/>
          <circle class="st4" cx="571.52" cy="83.4" r="2.3"/>
          <line class="st19" x1="572.9" y1="81.56" x2="576.12" y2="76.96"/>
          <circle class="st4" cx="582.56" cy="83.4" r="2.3"/>
          <line class="st19" x1="581.18" y1="81.56" x2="577.96" y2="76.96"/>
          <circle class="st30" cx="577.04" cy="76.04" r="1.38"/>
        </g>
        <g>
          <rect class="st34" x="596.92" y="65.92" width="5.06" height="20.24"/>
          <rect class="st42" x="601.98" y="65.92" width="5.06" height="20.24"/>
          <rect class="st41" x="607.04" y="65.92" width="5.06" height="20.24"/>
          <rect class="st43" x="612.1" y="65.92" width="5.06" height="20.24"/>
          <rect class="st12" x="596.92" y="65.92" width="20.24" height="20.24"/>
        </g>
        <g>
          <rect class="st31" x="626.76" y="68.52" width="5.28" height="14.08"/>
          <rect class="st31" x="639.08" y="68.52" width="5.28" height="14.08"/>
          <path class="st5" d="M633.8,75.56h3.52"/>
          <path class="st14" d="M634.68,73.8l-1.76,1.76,1.76,1.76"/>
          <path class="st14" d="M636.44,73.8l1.76,1.76-1.76,1.76"/>
        </g>
      </g>
      <g>
        <g>
          <rect class="st37" x="412" y="92" width="28" height="28" rx="2" ry="2"/>
          <rect class="st37" x="442" y="92" width="28" height="28" rx="2" ry="2"/>
          <rect class="st37" x="472" y="92" width="28" height="28" rx="2" ry="2"/>
          <rect class="st37" x="502" y="92" width="28" height="28" rx="2" ry="2"/>
          <rect class="st37" x="532" y="92" width="28" height="28" rx="2" ry="2"/>
          <rect class="st37" x="562" y="92" width="28" height="28" rx="2" ry="2"/>
          <rect class="st37" x="592" y="92" width="28" height="28" rx="2" ry="2"/>
          <rect class="st37" x="622" y="92" width="26" height="28" rx="2" ry="2"/>
        </g>
        <g>
          <path class="st21" d="M416.92,115.24c1.84,0,2.3-18.4,4.6-18.4,1.38,0,2.3,10.12,5.52,10.12s4.14-10.12,5.52-10.12c2.3,0,2.76,18.4,4.6,18.4"/>
          <path class="st9" d="M416.92,115.24c3.22,0,6.44-18.4,10.12-18.4s6.9,18.4,10.12,18.4"/>
        </g>
        <g>
          <circle class="st18" cx="457.04" cy="106.04" r="4.14"/>
          <line class="st19" x1="457.04" y1="96.38" x2="457.04" y2="99.14"/>
          <line class="st19" x1="457.04" y1="112.94" x2="457.04" y2="115.7"/>
          <line class="st19" x1="447.38" y1="106.04" x2="450.14" y2="106.04"/>
          <line class="st19" x1="463.94" y1="106.04" x2="466.7" y2="106.04"/>
          <line class="st19" x1="450.23" y1="99.23" x2="452.16" y2="101.16"/>
          <line class="st19" x1="461.92" y1="110.92" x2="463.85" y2="112.85"/>
          <line class="st19" x1="450.23" y1="112.85" x2="452.16" y2="110.92"/>
          <line class="st19" x1="461.92" y1="101.16" x2="463.85" y2="99.23"/>
        </g>
        <g>
          <rect class="st3" x="477.84" y="98.68" width="12.88" height="9.2" rx=".92" ry=".92"/>
          <rect class="st17" x="479.68" y="96.84" width="12.88" height="9.2" rx=".92" ry=".92"/>
          <rect class="st13" x="481.52" y="95" width="12.88" height="9.2" rx=".92" ry=".92"/>
          <line class="st19" x1="487.04" y1="106.96" x2="487.04" y2="115.24"/>
          <polyline class="st11" points="483.36 112.02 487.04 115.7 490.72 112.02"/>
        </g>
        <g>
          <rect class="st31" x="506.92" y="95.92" width="9.2" height="9.2"/>
          <rect class="st31" x="517.96" y="95.92" width="9.2" height="9.2"/>
          <rect class="st31" x="506.92" y="106.96" width="9.2" height="9.2"/>
          <rect class="st31" x="517.96" y="106.96" width="9.2" height="9.2"/>
          <rect class="st34" x="509.22" y="98.22" width="4.6" height="4.6"/>
          <rect class="st34" x="520.26" y="98.22" width="4.6" height="4.6"/>
          <rect class="st34" x="509.22" y="109.26" width="4.6" height="4.6"/>
          <rect class="st34" x="520.26" y="109.26" width="4.6" height="4.6"/>
        </g>
        <g>
          <rect class="st31" x="537.84" y="96.84" width="5.06" height="5.06"/>
          <rect class="st31" x="544.51" y="96.84" width="5.06" height="5.06"/>
          <rect class="st31" x="551.18" y="96.84" width="5.06" height="5.06"/>
          <rect class="st31" x="537.84" y="103.51" width="5.06" height="5.06"/>
          <rect class="st31" x="544.51" y="103.51" width="5.06" height="5.06"/>
          <rect class="st34" x="552.56" y="102.36" width="5.06" height="5.06"/>
          <rect class="st34" x="536" y="111.56" width="5.06" height="5.06"/>
          <rect class="st34" x="543.36" y="111.56" width="5.06" height="5.06"/>
          <rect class="st34" x="552.56" y="110.64" width="5.06" height="5.06"/>
        </g>
        <g>
          <circle class="st30" cx="569.68" cy="99.14" r="1.84"/>
          <path class="st30" d="M576.12,97.3h8.28c1.02,0,1.84.82,1.84,1.84h0c0,1.02-.82,1.84-1.84,1.84h-8.28c-1.02,0-1.84-.82-1.84-1.84h0c0-1.02.82-1.84,1.84-1.84Z"/>
          <circle class="st30" cx="569.68" cy="106.04" r="1.84"/>
          <path class="st30" d="M576.12,104.2h8.28c1.02,0,1.84.82,1.84,1.84h0c0,1.02-.82,1.84-1.84,1.84h-8.28c-1.02,0-1.84-.82-1.84-1.84h0c0-1.02.82-1.84,1.84-1.84Z"/>
          <circle class="st30" cx="569.68" cy="112.94" r="1.84"/>
          <path class="st30" d="M576.12,111.1h8.28c1.02,0,1.84.82,1.84,1.84h0c0,1.02-.82,1.84-1.84,1.84h-8.28c-1.02,0-1.84-.82-1.84-1.84h0c0-1.02.82-1.84,1.84-1.84Z"/>
        </g>
        <g>
          <path class="st4" d="M603.36,97.76v-1.38c0-.46.92-.46,1.84-.46h3.68c.92,0,1.84,0,1.84.46v1.38"/>
          <rect class="st4" x="599.68" y="97.76" width="14.72" height="2.3" rx=".92" ry=".92"/>
          <rect class="st4" x="600.6" y="100.06" width="12.88" height="15.64" rx=".92" ry=".92"/>
          <rect class="st20" x="603.36" y="104.66" width="7.36" height="6.44" rx=".92" ry=".92"/>
        </g>
        <g>
          <path class="st10" d="M632.04,97.64v-1.32c0-.44.88-.44,1.76-.44h3.52c.88,0,1.76,0,1.76.44v1.32"/>
          <rect class="st10" x="628.52" y="97.64" width="14.08" height="2.2" rx=".88" ry=".88"/>
          <rect class="st10" x="629.4" y="99.84" width="12.32" height="14.96" rx=".88" ry=".88"/>
          <ellipse class="st15" cx="635.56" cy="107.32" rx="4.4" ry="2.64"/>
          <line class="st5" x1="631.16" y1="104.68" x2="639.96" y2="109.96"/>
        </g>
      </g>
      <g>
        <g>
          <rect class="st37" x="412" y="122" width="28" height="28" rx="2" ry="2"/>
          <rect class="st37" x="442" y="122" width="28" height="28" rx="2" ry="2"/>
          <rect class="st37" x="472" y="122" width="28" height="28" rx="2" ry="2"/>
          <rect class="st37" x="502" y="122" width="28" height="28" rx="2" ry="2"/>
          <rect class="st37" x="532" y="122" width="28" height="28" rx="2" ry="2"/>
          <rect class="st37" x="562" y="122" width="28" height="28" rx="2" ry="2"/>
          <rect class="st38" x="592" y="122" width="28" height="28" rx="2" ry="2"/>
          <rect class="st37" x="622" y="122" width="26" height="28" rx="2" ry="2"/>
        </g>
        <rect class="st18" x="416.92" y="125.92" width="20.24" height="20.24"/>
        <g>
          <line class="st18" x1="457.04" y1="125.92" x2="457.04" y2="146.16"/>
          <line class="st18" x1="446.92" y1="136.04" x2="467.16" y2="136.04"/>
        </g>
        <g>
          <line class="st18" x1="476.92" y1="125.92" x2="497.16" y2="125.92"/>
          <line class="st7" x1="487.04" y1="125.92" x2="487.04" y2="140.64"/>
          <polyline class="st7" points="483.36 136.96 487.04 140.64 490.72 136.96"/>
        </g>
        <g>
          <line class="st18" x1="506.92" y1="146.16" x2="527.16" y2="146.16"/>
          <line class="st7" x1="517.04" y1="146.16" x2="517.04" y2="131.44"/>
          <polyline class="st7" points="513.36 135.12 517.04 131.44 520.72 135.12"/>
        </g>
        <g>
          <line class="st18" x1="536.92" y1="125.92" x2="536.92" y2="146.16"/>
          <line class="st7" x1="536.92" y1="136.04" x2="551.64" y2="136.04"/>
          <polyline class="st7" points="547.96 132.36 551.64 136.04 547.96 139.72"/>
        </g>
        <g>
          <line class="st18" x1="587.16" y1="125.92" x2="587.16" y2="146.16"/>
          <line class="st7" x1="587.16" y1="136.04" x2="572.44" y2="136.04"/>
          <polyline class="st7" points="576.12 132.36 572.44 136.04 576.12 139.72"/>
        </g>
        <g>
          <path class="st4" d="M603.36,127.76v-1.38c0-.46.92-.46,1.84-.46h3.68c.92,0,1.84,0,1.84.46v1.38"/>
          <rect class="st4" x="599.68" y="127.76" width="14.72" height="2.3" rx=".92" ry=".92"/>
          <rect class="st4" x="600.6" y="130.06" width="12.88" height="15.64" rx=".92" ry=".92"/>
          <line class="st7" x1="604.28" y1="133.28" x2="604.28" y2="142.48"/>
          <line class="st7" x1="607.04" y1="133.28" x2="607.04" y2="142.48"/>
          <line class="st7" x1="609.8" y1="133.28" x2="609.8" y2="142.48"/>
          <line class="st7" x1="602.44" y1="135.58" x2="611.64" y2="135.58"/>
          <line class="st7" x1="602.44" y1="137.88" x2="611.64" y2="137.88"/>
          <line class="st7" x1="602.44" y1="140.18" x2="611.64" y2="140.18"/>
        </g>
        <g>
          <polyline class="st2" points="630.28 135.56 635.56 130.28 640.84 135.56"/>
          <polyline class="st2" points="630.28 139.96 635.56 134.68 640.84 139.96"/>
          <polyline class="st2" points="630.28 144.36 635.56 139.08 640.84 144.36"/>
        </g>
      </g>
    </g>
    <g>
      <rect class="st36" x="408" y="166" width="244" height="30" rx="3" ry="3"/>
      <text class="st28" transform="translate(418 186)"><tspan x="0" y="0">Phrase Bank</tspan></text>
      <polyline class="st1" points="639 184 644 180 639 176"/>
    </g>
    <g>
      <rect class="st36" x="408" y="204" width="244" height="30" rx="3" ry="3"/>
      <text class="st28" transform="translate(418 224)"><tspan x="0" y="0">Resize Layers</tspan></text>
      <polyline class="st1" points="639 222 644 218 639 214"/>
    </g>
    <g>
      <rect class="st36" x="408" y="242" width="244" height="30" rx="3" ry="3"/>
      <text class="st28" transform="translate(418 262)"><tspan x="0" y="0">Add Text</tspan></text>
      <polyline class="st1" points="639 260 644 256 639 252"/>
    </g>
    <g>
      <rect class="st36" x="408" y="280" width="244" height="30" rx="3" ry="3"/>
      <text class="st28" transform="translate(418 300)"><tspan x="0" y="0">Adv Line Marker</tspan></text>
      <polyline class="st1" points="639 298 644 294 639 290"/>
    </g>
    <g>
      <rect class="st36" x="408" y="318" width="244" height="30" rx="3" ry="3"/>
      <text class="st28" transform="translate(418 338)"><tspan x="0" y="0">Scale Bar</tspan></text>
      <polyline class="st1" points="639 336 644 332 639 328"/>
    </g>
    <g>
      <rect class="st36" x="408" y="356" width="244" height="30" rx="3" ry="3"/>
      <text class="st28" transform="translate(418 376)"><tspan x="0" y="0">Inset</tspan></text>
      <polyline class="st1" points="639 374 644 370 639 366"/>
    </g>
    <g>
      <rect class="st36" x="408" y="394" width="244" height="30" rx="3" ry="3"/>
      <text class="st28" transform="translate(418 414)"><tspan x="0" y="0">Scale Bar (Inset)</tspan></text>
      <polyline class="st1" points="639 412 644 408 639 404"/>
    </g>
    <g>
      <rect class="st36" x="408" y="432" width="244" height="30" rx="3" ry="3"/>
      <text class="st28" transform="translate(418 452)"><tspan x="0" y="0">Add Label</tspan></text>
      <polyline class="st1" points="639 450 644 446 639 442"/>
    </g>
    <g>
      <rect class="st36" x="408" y="470" width="244" height="30" rx="3" ry="3"/>
      <text class="st28" transform="translate(418 490)"><tspan x="0" y="0">Edit Text</tspan></text>
      <polyline class="st1" points="639 488 644 484 639 480"/>
    </g>
    <g>
      <rect class="st36" x="408" y="508" width="244" height="30" rx="3" ry="3"/>
      <text class="st28" transform="translate(418 528)"><tspan x="0" y="0">Add Line</tspan></text>
      <polyline class="st1" points="639 526 644 522 639 518"/>
    </g>
  </g>
  <circle class="st40" cx="400" cy="38" r="2.5"/>
  <line class="st0" x1="400" y1="38" x2="370" y2="38"/>
  <g>
    <text class="st25" transform="translate(221.43 28)"><tspan x="0" y="0">Channel Split &amp; Merge</tspan></text>
    <text class="st26" transform="translate(138.61 46)"><tspan x="0" y="0">Split/merge channels, merge docs, swap, tile.</tspan></text>
  </g>
  <circle class="st40" cx="660" cy="68" r="2.5"/>
  <line class="st0" x1="660" y1="68" x2="690" y2="68"/>
  <g>
    <text class="st25" transform="translate(698 56)"><tspan x="0" y="0">Pseudo Color &amp; Batch Processing</tspan></text>
    <text class="st26" transform="translate(698 74)"><tspan x="0" y="0">Pseudo color, smart crop, grid arrange, batch I/O.</tspan></text>
  </g>
  <circle class="st40" cx="400" cy="98" r="2.5"/>
  <line class="st0" x1="400" y1="98" x2="370" y2="98"/>
  <g>
    <text class="st25" transform="translate(217.76 88)"><tspan x="0" y="0">Measure &amp; Layer Tools</tspan></text>
    <text class="st26" transform="translate(130.94 106)"><tspan x="0" y="0">Line profile, Z-projection, stamp, layer cleanup.</tspan></text>
  </g>
  <circle class="st40" cx="660" cy="128" r="2.5"/>
  <line class="st0" x1="660" y1="128" x2="690" y2="128"/>
  <g>
    <text class="st25" transform="translate(698 116)"><tspan x="0" y="0">Guide System</tspan></text>
    <text class="st26" transform="translate(698 134)"><tspan x="0" y="0">Border, midlines, edge guides, clear guides.</tspan></text>
  </g>
  <circle class="st40" cx="400" cy="181" r="2.5"/>
  <line class="st0" x1="400" y1="181" x2="370" y2="181"/>
  <g>
    <text class="st25" transform="translate(285.18 171)"><tspan x="0" y="0">Phrase Bank</tspan></text>
    <text class="st26" transform="translate(157.16 189)"><tspan x="0" y="0">Quick-insert saved text snippets to layers.</tspan></text>
  </g>
  <circle class="st40" cx="660" cy="219" r="2.5"/>
  <line class="st0" x1="660" y1="219" x2="690" y2="219"/>
  <g>
    <text class="st25" transform="translate(698 207)"><tspan x="0" y="0">Resize Layers</tspan></text>
    <text class="st26" transform="translate(698 225)"><tspan x="0" y="0">Resize by width, height, percentage, or DPI.</tspan></text>
  </g>
  <circle class="st40" cx="400" cy="257" r="2.5"/>
  <line class="st0" x1="400" y1="257" x2="370" y2="257"/>
  <g>
    <text class="st25" transform="translate(311.15 247)"><tspan x="0" y="0">Add Text</tspan></text>
    <text class="st26" transform="translate(149.48 265)"><tspan x="0" y="0">Add styled text with font, size, color control.</tspan></text>
  </g>
  <circle class="st40" cx="660" cy="295" r="2.5"/>
  <line class="st0" x1="660" y1="295" x2="690" y2="295"/>
  <g>
    <text class="st25" transform="translate(698 283)"><tspan x="0" y="0">Adv Line Marker</tspan></text>
    <text class="st26" transform="translate(698 301)"><tspan x="0" y="0">Draw lines, arrows, brackets with grid presets.</tspan></text>
  </g>
  <circle class="st40" cx="400" cy="333" r="2.5"/>
  <line class="st0" x1="400" y1="333" x2="370" y2="333"/>
  <g>
    <text class="st25" transform="translate(306.18 323)"><tspan x="0" y="0">Scale Bar</tspan></text>
    <text class="st26" transform="translate(130.92 341)"><tspan x="0" y="0">Add calibrated scale bars with labels and units.</tspan></text>
  </g>
  <circle class="st40" cx="660" cy="371" r="2.5"/>
  <line class="st0" x1="660" y1="371" x2="690" y2="371"/>
  <g>
    <text class="st25" transform="translate(698 359)"><tspan x="0" y="0">Inset</tspan></text>
    <text class="st26" transform="translate(698 377)"><tspan x="0" y="0">Create magnified inset panels from selections.</tspan></text>
  </g>
  <circle class="st40" cx="400" cy="409" r="2.5"/>
  <line class="st0" x1="400" y1="409" x2="370" y2="409"/>
  <g>
    <text class="st25" transform="translate(260.29 399)"><tspan x="0" y="0">Scale Bar (Inset)</tspan></text>
    <text class="st26" transform="translate(165.45 417)"><tspan x="0" y="0">Auto-scaled bars for inset magnification.</tspan></text>
  </g>
  <circle class="st40" cx="660" cy="447" r="2.5"/>
  <line class="st0" x1="660" y1="447" x2="690" y2="447"/>
  <g>
    <text class="st25" transform="translate(698 435)"><tspan x="0" y="0">Add Label</tspan></text>
    <text class="st26" transform="translate(698 453)"><tspan x="0" y="0">Auto-label panels A, B, C… with grid layout.</tspan></text>
  </g>
  <circle class="st40" cx="400" cy="485" r="2.5"/>
  <line class="st0" x1="400" y1="485" x2="370" y2="485"/>
  <g>
    <text class="st25" transform="translate(311.92 475)"><tspan x="0" y="0">Edit Text</tspan></text>
    <text class="st26" transform="translate(166.74 493)"><tspan x="0" y="0">Batch edit font, size, color of text layers.</tspan></text>
  </g>
  <circle class="st40" cx="660" cy="523" r="2.5"/>
  <line class="st0" x1="660" y1="523" x2="690" y2="523"/>
  <g>
    <text class="st25" transform="translate(698 511)"><tspan x="0" y="0">Add Line</tspan></text>
    <text class="st26" transform="translate(698 529)"><tspan x="0" y="0">Draw lines and arrows with custom styling.</tspan></text>
  </g>
  <g>
    <path class="st29" d="M229.07,53h131.22c4.76,0,8.62,4.03,8.62,9h0c0,4.97-3.86,9-8.62,9h-131.22c-4.76,0-8.62-4.03-8.62-9h0c0-4.97,3.86-9,8.62-9Z"/>
    <text class="st32" transform="translate(236.29 65.52)"><tspan x="0" y="0">Adobe Photoshop Only</tspan></text>
  </g>
  <g>
    <path class="st29" d="M229.07,112.27h131.22c4.76,0,8.62,4.03,8.62,9h0c0,4.97-3.86,9-8.62,9h-131.22c-4.76,0-8.62-4.03-8.62-9h0c0-4.97,3.86-9,8.62-9Z"/>
    <text class="st32" transform="translate(236.29 124.8)"><tspan x="0" y="0">Adobe Photoshop Only</tspan></text>
  </g>
  <g>
    <path class="st29" d="M706.6,79.94h131.22c4.76,0,8.62,4.03,8.62,9h0c0,4.97-3.86,9-8.62,9h-131.22c-4.76,0-8.62-4.03-8.62-9h0c0-4.97,3.86-9,8.62-9Z"/>
    <text class="st32" transform="translate(713.82 92.46)"><tspan x="0" y="0">Adobe Photoshop Only</tspan></text>
  </g>
</svg>