<?xml version="1.0" encoding="UTF-8"?>
<svg id="Layer_1" xmlns="http://www.w3.org/2000/svg" version="1.1" viewBox="0 0 480 480">
  <!-- Generator: Adobe Illustrator 30.0.0, SVG Export Plug-In . SVG Version: 2.1.1 Build 123)  -->
  <defs>
    <style>
      .st0 {
        stroke-linecap: round;
        stroke-width: 6.5px;
      }

      .st0, .st1, .st2 {
        fill: none;
        stroke: #e0e0e0;
      }

      .st0, .st2 {
        stroke-miterlimit: 5.2;
      }

      .st3 {
        font-family: Arial-BoldMT, Arial;
        font-size: 13px;
        font-weight: 700;
      }

      .st3, .st4 {
        fill: #e0e0e0;
      }

      .st3, .st5, .st6 {
        isolation: isolate;
      }

      .st5 {
        fill: #8b8b97;
        font-family: ArialMT, Arial;
        font-size: 11.25px;
      }

      .st7 {
        fill: #f44;
      }

      .st1 {
        stroke-miterlimit: 5.2;
        stroke-width: 2.34px;
      }

      .st2 {
        stroke-width: 3.9px;
      }
    </style>
  </defs>
  <g>
    <line class="st0" x1="240" y1="213.44" x2="240" y2="302.64"/>
    <polygon class="st2" points="240 122.48 280.23 145.22 280.23 188.95 240 211.69 199.77 188.95 199.77 145.22 240 122.48"/>
    <ellipse class="st1" cx="240" cy="167.08" rx="27.99" ry="12.24" transform="translate(-47.85 218.64) rotate(-45)"/>
    <ellipse class="st1" cx="240" cy="167.08" rx="12.24" ry="27.99" transform="translate(-47.85 218.64) rotate(-45)"/>
    <circle class="st4" cx="240" cy="167.08" r="6.12"/>
    <circle class="st7" cx="240" cy="122.48" r="7.87"/>
    <circle class="st7" cx="280.23" cy="145.22" r="7.87"/>
    <circle class="st7" cx="280.23" cy="188.95" r="7.87"/>
    <circle class="st7" cx="199.77" cy="188.95" r="7.87"/>
    <circle class="st7" cx="199.77" cy="145.22" r="7.87"/>
  </g>
  <g class="st6">
    <text class="st3" transform="translate(215.07 70)"><tspan x="0" y="0">ImageXi</tspan></text>
  </g>
  <g class="st6">
    <text class="st3" transform="translate(37.81 150)"><tspan x="0" y="0">WesternBo</tspan></text>
  </g>
  <g class="st6">
    <text class="st3" transform="translate(384.16 150)"><tspan x="0" y="0">ChartEr</tspan></text>
  </g>
  <g class="st6">
    <text class="st3" transform="translate(46.36 270)"><tspan x="0" y="0">GuideMi</tspan></text>
  </g>
  <g class="st6">
    <text class="st3" transform="translate(380.9 270)"><tspan x="0" y="0">SciPanel</tspan></text>
  </g>
  <g>
    <path class="st4" d="M159.25,354.55c-2.52-.75-4.98-1.33-7.29-2.41-3.88-1.81-6.08-4.81-6.11-9.11-.02-4.09,1.73-7.41,5.36-9.41,5.31-2.94,10.81-3.05,16.31-.47,3.7,1.74,5.54,4.88,6.3,8.77.15.76-.12,1.14-.9,1.24-1.43.18-2.86.33-4.27.62-.87.18-1.15-.15-1.37-.9-1.52-5.1-6.49-7.25-11.41-4.95-1.98.92-3.02,2.5-3.08,4.63-.06,1.98,1.14,3.18,2.83,4.02,1.85.92,3.86,1.37,5.82,1.92,2.35.66,4.71,1.26,6.93,2.3,4.02,1.89,6.22,5.03,6.22,9.47s-1.85,7.88-5.81,10.12c-4.99,2.81-15.19,2.79-20.14-1.8-2.26-2.1-3.41-4.68-3.94-7.62-.13-.72.14-1.14.93-1.25,1.47-.19,2.92-.45,4.39-.68.67-.11,1.05.12,1.18.84,1.18,6.79,8.84,7.78,13.17,5.83,1.94-.87,3.25-2.29,3.33-4.59.09-2.37-1.12-3.84-3.15-4.81-1.66-.79-3.44-1.23-5.31-1.75h0Z"/>
    <path class="st4" d="M227.29,331.92c4.61-.98,8.95-.66,12.98,1.72,3.23,1.91,4.86,4.88,5.42,8.52.1.68-.26.88-.76.96-1.59.26-3.19.46-4.78.72-.67.11-.81-.33-.96-.81-1.62-5.25-6.17-7.37-11.15-5.22-2.09.9-3.33,2.5-3.35,4.72-.02,2.07,1.3,3.42,3.16,4.25,2.37,1.04,4.9,1.52,7.36,2.27,1.54.47,3.08.96,4.56,1.58,5.27,2.2,7.53,6.5,6.46,12.1-.76,3.98-3.06,6.76-6.79,8.13-6.2,2.27-12.33,2.2-18-1.58-2.91-1.94-4.36-4.89-4.9-8.32-.12-.75.05-1.14.87-1.25,1.47-.2,2.92-.47,4.38-.73.77-.13,1.11.09,1.33.94,1.6,6.3,9.65,8.89,14.75,4.78,2.44-1.97,2.41-5.68-.09-7.59-1.23-.95-2.67-1.45-4.14-1.89-2.79-.83-5.67-1.39-8.39-2.46-5.02-1.96-7.61-5.35-7.54-9.87.08-4.95,3.09-8.89,8.08-10.58.45-.15.92-.25,1.49-.41h0v.02Z"/>
    <path class="st4" d="M331.7,359.4c-.69.51-1.4.41-2.09.41h-16.94c-.5,3.1,2.09,6.48,5.27,6.98,3.1.48,5.74-.21,7.37-3.16.38-.68.82-.77,1.5-.54,1.15.4,2.32.77,3.49,1.09.87.24.96.69.6,1.45-1.39,2.91-3.59,4.98-6.66,5.88-5.14,1.5-10.02,1.09-14.17-2.72-2.24-2.06-3.38-4.73-3.83-7.69-.68-4.45-.27-8.74,2.52-12.44,3.26-4.34,7.79-5.73,12.99-4.81,5.04.9,8.14,4.07,9.48,8.98.58,2.12.85,4.27.49,6.56M321.11,349.14c-4.2-1.12-8.14,1.21-8.4,5.82h12.65c-.35-2.77-1.52-4.74-4.25-5.82Z"/>
    <path class="st4" d="M252.92,369.67c-2.47-2.65-2.91-5.89-2.97-9.18-.09-4.88,0-9.76-.04-14.64,0-1.13.27-1.7,1.56-1.57,1.21.12,2.45.11,3.65-.01,1.16-.12,1.43.35,1.42,1.4-.04,4.66-.03,9.32-.02,13.99,0,.82-.02,1.67.14,2.47.66,3.15,2.72,4.72,5.76,4.45,2.83-.25,5.11-2.59,5.19-5.63.12-4.79.06-9.58.08-14.38,0-.39,0-.78.01-1.17.01-.74.35-1.09,1.13-1.08,1.44.03,2.88.03,4.31-.02.8-.03,1.12.27,1.11,1.05-.02.83-.02,1.66-.02,2.48,0,7.27,0,14.55-.02,21.82,0,2.04-.03,2.05-2.02,2.06-.87,0-1.75-.06-2.61.01-1.28.11-1.74-.46-1.65-1.67.03-.46.09-.95-.24-1.6-2.4,3.13-5.63,4.15-9.36,3.76-2.04-.21-3.88-.96-5.41-2.52h0v-.02Z"/>
    <path class="st4" d="M178.71,364.55c-1.73-4.52-1.84-8.94.05-13.32,3.62-8.4,15.73-10.36,21.78-3.56,1.18,1.33,1.89,2.91,2.43,4.58.22.67,0,.99-.65,1.12-1.5.28-3,.54-4.5.84-.72.15-1-.2-1.26-.8-1.4-3.39-2.88-4.37-6.35-4.23-2.66.1-4.68,1.73-5.63,4.68-.98,3.01-.86,6.02.31,8.95.99,2.49,3.37,4.04,5.92,3.98,2.83-.07,4.88-1.48,5.79-4.24.35-1.06.81-1.25,1.8-.96,1.21.35,2.46.59,3.7.82.93.17,1.08.6.82,1.48-1.4,4.66-5.45,7.98-10.34,8.34-2.86.21-5.65-.01-8.27-1.38-2.64-1.38-4.4-3.51-5.63-6.26h0l.03-.04Z"/>
    <path class="st4" d="M304.62,348.01c.07,1.09-.43,1.43-1.35,1.41-1.22-.03-2.44,0-3.66,0-.71,0-1.03.31-1.03,1.02.02,4.53,0,9.06.06,13.59.02,1.62.93,2.42,2.56,2.56.35.03.7.02,1.04,0,1.6-.07,2.39.72,2.39,2.39,0,2.81-.1,2.92-2.91,3-1,.03-2.01.04-3.01-.01-3.83-.18-6.35-2.77-6.53-6.61-.22-4.7-.13-9.4-.14-14.11,0-1.82-.03-1.85-1.79-1.85-.31,0-.61-.02-.91,0-.93.08-1.42-.27-1.32-1.26.02-.22,0-.44,0-.65,0-2.97,0-3.01,2.9-3.16,1.07-.06,1.22-.69,1.17-1.48-.09-1.53.02-3.05.07-4.57.03-.76.23-1.21,1.03-1.38,1.4-.3,2.8-.65,4.18-1.04.92-.26,1.2.15,1.2.97,0,2.05.05,4.1,0,6.14-.03,1.02.34,1.41,1.37,1.35,1.22-.07,2.44.01,3.66-.03.73-.03,1.04.27,1.03.99-.01.87,0,1.74,0,2.74h0Z"/>
    <path class="st4" d="M206.67,358.01c0-4.23.03-8.32-.02-12.42,0-1.11.4-1.49,1.44-1.43,1.21.07,2.44.13,3.66.07,1.13-.06,1.38.42,1.38,1.46-.04,7.32-.02,14.65-.03,21.97,0,.96-.03,1.92,0,2.88.03.85-.34,1.17-1.17,1.16-1.3-.03-2.62-.05-3.92,0-1.03.04-1.36-.39-1.36-1.39.04-4.05,0-8.11,0-12.29h.02Z"/>
    <path class="st4" d="M285.3,348.08v20.91c0,3.03.27,2.68-2.76,2.7-.87,0-1.74-.01-2.61,0-.68,0-1.05-.23-1.05-.98.02-8.62.02-17.25.03-25.87,0-.12.07-.24.17-.54h5.53c.59,0,.68.44.69.91v2.88h0Z"/>
    <path class="st7" d="M285.31,333.11c1.23,1.64,1.39,3.29.36,4.95-1.05,1.71-2.66,2.29-4.61,1.97-1.58-.26-2.92-1.57-3.33-3.3-.73-2.99,2.35-5.91,5.32-5.03.85.25,1.62.64,2.27,1.41h-.01Z"/>
    <path class="st7" d="M212.06,339.6c-2.75,1.2-5.32.26-6.23-2.2-.9-2.46.45-4.99,3.03-5.7,1.89-.52,4.03.49,4.9,2.29.99,2.05.39,4.13-1.71,5.61h.01Z"/>
    <g class="st6">
      <text class="st5" transform="translate(144.43 385.76)"><tspan x="0" y="0">Scientific Image Processing &amp; Typeset</tspan></text>
    </g>
  </g>
</svg>